<svg width="102" height="48" viewBox="0 0 102 48" fill="none" xmlns="http://www.w3.org/2000/svg">
<path d="M20 23.9055H1.5C1.5 33.1215 13.097 41.0455 13.097 41.0455H20" stroke="#F29C33" stroke-width="2" stroke-linecap="round" stroke-linejoin="round"/>
<path d="M6.884 26.0115C6.884 32.8035 14.512 37.8155 14.512 37.8155M20 23.9055H38.5C38.5 33.1215 26.903 41.0455 26.903 41.0455H20M10.094 23.9055C8.748 18.8665 17.748 15.4025 25.824 14.3325L26.614 12.8785L29.798 16.7485L28.051 17.0325C27.196 19.8425 22.916 23.9055 22.916 23.9055" stroke="#F29C33" stroke-width="2" stroke-linecap="round" stroke-linejoin="round"/>
<path d="M11.51 23.9055C11.798 21.3115 14.806 18.3915 26.282 14.8865" stroke="#F29C33" stroke-width="2" stroke-linecap="round" stroke-linejoin="round"/>
<path d="M26.578 15.2475C22.238 17.4215 17.178 19.9195 13.632 23.9055M27.425 16.2745C22.915 22.4005 20 23.9055 20 23.9055M17.505 23.9055C20.225 22.3155 26.995 15.7515 26.995 15.7515M29.077 15.8905L37.228 9.28547C37.362 9.17714 37.4733 9.04343 37.5556 8.892C37.6378 8.74058 37.6894 8.57441 37.7073 8.40302C37.7253 8.23163 37.7092 8.05839 37.6601 7.89322C37.6109 7.72805 37.5297 7.5742 37.421 7.44047C37.3127 7.30661 37.179 7.19541 37.0277 7.11325C36.8763 7.03109 36.7103 6.97957 36.539 6.96165C36.3677 6.94372 36.1946 6.95974 36.0296 7.00878C35.8645 7.05783 35.7107 7.13894 35.577 7.24747L27.425 13.8525" stroke="#F29C33" stroke-width="2" stroke-linecap="round" stroke-linejoin="round"/>
<path d="M65 3.21875V3.26562C65 3.35156 64.9531 3.41406 64.8594 3.45312C64.7656 3.49219 64.6523 3.52344 64.5195 3.54688C64.3867 3.57031 64.25 3.59766 64.1094 3.62891C63.9766 3.65234 63.8672 3.69141 63.7812 3.74609C63.625 3.84766 63.5 3.99609 63.4062 4.19141C63.3203 4.37891 63.2109 4.60938 63.0781 4.88281C63.0469 4.9375 63.0156 5.00781 62.9844 5.09375C62.9609 5.17969 62.9297 5.25391 62.8906 5.31641C62.8672 5.35547 62.8203 5.38672 62.75 5.41016C62.6797 5.43359 62.6406 5.49219 62.6328 5.58594C62.6328 5.63281 62.5977 5.70312 62.5273 5.79688C62.4648 5.88281 62.4141 5.95703 62.375 6.01953C62.3047 6.15234 62.2422 6.28906 62.1875 6.42969C62.1406 6.5625 62.0859 6.6875 62.0234 6.80469C61.9844 6.86719 61.9414 6.92578 61.8945 6.98047C61.8477 7.03516 61.8047 7.09375 61.7656 7.15625C61.6562 7.32031 61.5547 7.5 61.4609 7.69531C61.3672 7.89062 61.2656 8.08984 61.1562 8.29297C61.1172 8.33984 61.0742 8.37891 61.0273 8.41016C60.9805 8.43359 60.957 8.46484 60.957 8.50391C60.957 8.52734 60.9609 8.55469 60.9688 8.58594C60.9766 8.61719 60.9805 8.64453 60.9805 8.66797C60.9805 8.70703 60.9648 8.73828 60.9336 8.76172C60.9102 8.77734 60.8828 8.79688 60.8516 8.82031C60.8203 8.83594 60.7891 8.85547 60.7578 8.87891C60.7266 8.90234 60.7109 8.94141 60.7109 8.99609C60.7109 9.03516 60.6875 9.09375 60.6406 9.17188C60.5938 9.25 60.543 9.32812 60.4883 9.40625C60.4336 9.48438 60.3828 9.55469 60.3359 9.61719C60.2891 9.67188 60.2656 9.69922 60.2656 9.69922C60.2656 9.77734 60.2188 9.85547 60.125 9.93359C60.0391 10.0039 59.9375 10.0898 59.8203 10.1914C59.7109 10.2852 59.6055 10.3984 59.5039 10.5312C59.4023 10.6641 59.3398 10.8242 59.3164 11.0117C59.293 11.1133 59.2539 11.2266 59.1992 11.3516C59.1445 11.4766 59.1172 11.6289 59.1172 11.8086C59.1172 11.8867 59.1211 11.9648 59.1289 12.043C59.1367 12.1133 59.1406 12.1914 59.1406 12.2773C59.1406 12.4648 59.1211 12.6641 59.082 12.875C59.0508 13.0781 59.0117 13.2812 58.9648 13.4844C58.918 13.6797 58.875 13.8672 58.8359 14.0469C58.8047 14.2266 58.7891 14.3867 58.7891 14.5273C58.7891 14.582 58.8008 14.6602 58.8242 14.7617C58.8555 14.8555 58.8711 14.9453 58.8711 15.0312C58.8711 15.0469 58.8633 15.0859 58.8477 15.1484C58.8398 15.2031 58.8242 15.2695 58.8008 15.3477C58.7852 15.418 58.7695 15.4961 58.7539 15.582C58.7461 15.6602 58.7422 15.7344 58.7422 15.8047C58.7422 15.9375 58.7812 16.0234 58.8594 16.0625C58.9375 16.0938 59.0234 16.1094 59.1172 16.1094C59.2812 16.1094 59.4688 16.0781 59.6797 16.0156C59.8906 15.9453 60.082 15.9102 60.2539 15.9102C60.3789 15.9102 60.4727 15.9375 60.5352 15.9922C60.4961 16.0625 60.4414 16.1172 60.3711 16.1562C60.3086 16.1953 60.2344 16.2227 60.1484 16.2383C60.0625 16.2539 59.9688 16.2695 59.8672 16.2852C59.7734 16.3008 59.6758 16.3203 59.5742 16.3438C59.4648 16.3672 59.332 16.4023 59.1758 16.4492C59.0195 16.4961 58.8633 16.5508 58.707 16.6133C58.5508 16.668 58.4062 16.7266 58.2734 16.7891C58.1484 16.8438 58.0586 16.8984 58.0039 16.9531C57.9258 17.0312 57.8711 17.0938 57.8398 17.1406C57.8086 17.1953 57.7383 17.2227 57.6289 17.2227C57.5273 17.2227 57.4336 17.1914 57.3477 17.1289C57.2617 17.0742 57.1406 17.0469 56.9844 17.0469C56.9219 17.0469 56.8359 17.0508 56.7266 17.0586C56.6172 17.0664 56.5039 17.0742 56.3867 17.082C56.2695 17.0977 56.1562 17.1172 56.0469 17.1406C55.9453 17.1641 55.8672 17.1875 55.8125 17.2109C55.7578 17.2344 55.6719 17.2617 55.5547 17.293C55.4375 17.3242 55.3164 17.3516 55.1914 17.375C55.0664 17.3984 54.9531 17.418 54.8516 17.4336C54.75 17.4492 54.6875 17.457 54.6641 17.457C54.5938 17.457 54.5273 17.4375 54.4648 17.3984C54.4102 17.3594 54.3828 17.2891 54.3828 17.1875C54.3828 17.1406 54.3945 17.1016 54.418 17.0703C54.4492 17.0469 54.4883 17.0234 54.5352 17C54.582 16.9844 54.6328 16.9688 54.6875 16.9531C54.7422 16.9375 54.7969 16.9102 54.8516 16.8711C54.8672 16.8555 54.8789 16.8242 54.8867 16.7773C54.9023 16.7305 54.918 16.7031 54.9336 16.6953C55.0117 16.6562 55.1016 16.6133 55.2031 16.5664C55.3125 16.5195 55.4336 16.4961 55.5664 16.4961C55.6367 16.4961 55.707 16.5 55.7773 16.5078C55.8477 16.5156 55.918 16.5195 55.9883 16.5195C56.0742 16.5195 56.1836 16.5156 56.3164 16.5078C56.457 16.4922 56.5508 16.4648 56.5977 16.4258C56.6055 16.418 56.6211 16.3672 56.6445 16.2734C56.6758 16.1719 56.7031 16.0586 56.7266 15.9336C56.7578 15.8086 56.7852 15.6875 56.8086 15.5703C56.832 15.4453 56.8477 15.3516 56.8555 15.2891C56.8633 15.2578 56.8672 15.2109 56.8672 15.1484C56.8672 15.0859 56.8633 15.0273 56.8555 14.9727C56.8477 14.9102 56.8438 14.8477 56.8438 14.7852C56.8438 14.6602 56.8828 14.5156 56.9609 14.3516C57.0391 14.1797 57.0938 13.9961 57.125 13.8008C57.1484 13.6367 57.168 13.4531 57.1836 13.25C57.1992 13.0391 57.2109 12.8359 57.2188 12.6406C57.2344 12.4375 57.2461 12.2539 57.2539 12.0898C57.2695 11.918 57.2852 11.7891 57.3008 11.7031C57.293 11.6562 57.2812 11.6211 57.2656 11.5977C57.2578 11.5742 57.2461 11.5586 57.2305 11.5508C57.2148 11.5352 57.1992 11.5234 57.1836 11.5156C57.168 11.5 57.1484 11.4766 57.125 11.4453C57.0625 11.3594 57.0039 11.2539 56.9492 11.1289C56.8945 10.9961 56.8359 10.8672 56.7734 10.7422C56.7344 10.6797 56.6914 10.6133 56.6445 10.543C56.5977 10.4648 56.5547 10.3867 56.5156 10.3086C56.4766 10.2305 56.4453 10.1562 56.4219 10.0859C56.4062 10.0078 56.3867 9.93359 56.3633 9.86328C56.3477 9.78516 56.3242 9.71094 56.293 9.64062C56.2617 9.57031 56.2188 9.5 56.1641 9.42969C56.1328 9.39844 56.0859 9.37109 56.0234 9.34766C55.9609 9.32422 55.9219 9.29297 55.9062 9.25391C55.8438 9.14453 55.7969 9.01172 55.7656 8.85547C55.7422 8.69922 55.6992 8.54297 55.6367 8.38672C55.6211 8.36328 55.5898 8.33203 55.543 8.29297C55.5039 8.25391 55.4766 8.22656 55.4609 8.21094C55.4375 8.16406 55.4102 8.10156 55.3789 8.02344C55.3555 7.9375 55.3281 7.85547 55.2969 7.77734C55.2734 7.69922 55.25 7.62891 55.2266 7.56641C55.2109 7.50391 55.2031 7.47266 55.2031 7.47266V7.36719C55.2031 7.32812 55.1523 7.25391 55.0508 7.14453C54.957 7.02734 54.8906 6.88281 54.8516 6.71094C54.8125 6.55469 54.7422 6.38281 54.6406 6.19531C54.5469 6 54.4688 5.79688 54.4062 5.58594C54.3672 5.46094 54.3438 5.32812 54.3359 5.1875C54.3359 5.04688 54.332 4.97656 54.3242 4.97656C54.2539 4.89063 54.1562 4.83203 54.0312 4.80078C53.9141 4.76953 53.7852 4.75391 53.6445 4.75391C53.5039 4.74609 53.3633 4.74219 53.2227 4.74219C53.082 4.74219 52.9531 4.73047 52.8359 4.70703C52.8828 4.50391 52.9805 4.37891 53.1289 4.33203C53.2852 4.27734 53.4531 4.25 53.6328 4.25H53.9375C54.0156 4.25 54.1016 4.24219 54.1953 4.22656C54.2969 4.21094 54.3867 4.19141 54.4648 4.16797C54.5508 4.14453 54.6211 4.11719 54.6758 4.08594C54.7305 4.05469 54.7578 4.01953 54.7578 3.98047C54.7578 3.96484 54.7539 3.94531 54.7461 3.92188C54.7461 3.89062 54.7461 3.86719 54.7461 3.85156C54.7461 3.82031 54.7695 3.78906 54.8164 3.75781C54.8711 3.72656 54.9297 3.69922 54.9922 3.67578C55.0547 3.64453 55.1133 3.62109 55.168 3.60547C55.2305 3.58203 55.2695 3.57031 55.2852 3.57031H55.3555C55.4023 3.57031 55.4375 3.58203 55.4609 3.60547C55.4844 3.62109 55.5039 3.64062 55.5195 3.66406C55.5352 3.67969 55.5508 3.69922 55.5664 3.72266C55.582 3.73828 55.6094 3.74609 55.6484 3.74609C55.6641 3.74609 55.6836 3.74609 55.707 3.74609C55.7305 3.73828 55.7539 3.73438 55.7773 3.73438C55.8008 3.73438 55.8203 3.74609 55.8359 3.76953C55.8516 3.79297 55.8711 3.81641 55.8945 3.83984C55.918 3.86328 55.9531 3.88672 56 3.91016C56.0469 3.93359 56.1172 3.94531 56.2109 3.94531C56.3672 3.94531 56.5273 3.92578 56.6914 3.88672C56.8555 3.84766 57.0156 3.82812 57.1719 3.82812C57.3281 3.82812 57.457 3.85938 57.5586 3.92188C57.5117 4.05469 57.4453 4.14063 57.3594 4.17969C57.2734 4.21094 57.1797 4.22656 57.0781 4.22656C57.0312 4.22656 56.9805 4.22656 56.9258 4.22656C56.8789 4.21875 56.832 4.21484 56.7852 4.21484C56.6602 4.21484 56.5547 4.24219 56.4688 4.29688C56.3906 4.35156 56.3516 4.48828 56.3516 4.70703C56.3516 5.02734 56.3789 5.29688 56.4336 5.51562C56.4883 5.73438 56.5508 5.92969 56.6211 6.10156C56.6992 6.27344 56.7773 6.43359 56.8555 6.58203C56.9336 6.73047 56.9922 6.89453 57.0312 7.07422C57.0547 7.16797 57.0938 7.28125 57.1484 7.41406C57.2109 7.53906 57.2773 7.66797 57.3477 7.80078C57.418 7.93359 57.4883 8.06641 57.5586 8.19922C57.6289 8.33203 57.6875 8.44922 57.7344 8.55078C57.7969 8.69922 57.875 8.85156 57.9688 9.00781C58.0625 9.15625 58.1875 9.32812 58.3438 9.52344C58.3594 9.53906 58.3828 9.58203 58.4141 9.65234C58.4531 9.71484 58.4961 9.78125 58.543 9.85156C58.5898 9.92188 58.6406 9.98828 58.6953 10.0508C58.7578 10.1055 58.8164 10.1328 58.8711 10.1328C58.8945 10.1328 58.9297 10.1094 58.9766 10.0625C59.0234 10.0078 59.0742 9.94531 59.1289 9.875C59.1836 9.79688 59.2344 9.71875 59.2812 9.64062C59.3281 9.5625 59.3672 9.49219 59.3984 9.42969C59.4688 9.28906 59.5547 9.14453 59.6562 8.99609C59.7656 8.84766 59.875 8.69922 59.9844 8.55078C60.1016 8.39453 60.2148 8.23828 60.3242 8.08203C60.4414 7.91797 60.543 7.75781 60.6289 7.60156C60.668 7.52344 60.6914 7.4375 60.6992 7.34375C60.7148 7.24219 60.7461 7.15234 60.793 7.07422C60.8086 7.03516 60.8359 7.00781 60.875 6.99219C60.9141 6.96875 60.9453 6.9375 60.9688 6.89844C61.0156 6.82031 61.0586 6.71484 61.0977 6.58203C61.1367 6.44141 61.1836 6.3125 61.2383 6.19531C61.2773 6.10938 61.3281 6.03906 61.3906 5.98438C61.4609 5.92188 61.5 5.85547 61.5078 5.78516C61.5078 5.76172 61.5039 5.73828 61.4961 5.71484C61.4883 5.68359 61.4844 5.65625 61.4844 5.63281C61.4844 5.625 61.4844 5.61719 61.4844 5.60938C61.4922 5.60156 61.4961 5.59375 61.4961 5.58594C61.5039 5.57812 61.5234 5.52734 61.5547 5.43359C61.5938 5.33203 61.6328 5.22266 61.6719 5.10547C61.7188 4.98047 61.7578 4.85938 61.7891 4.74219C61.8281 4.625 61.8477 4.53906 61.8477 4.48438C61.8477 4.42969 61.832 4.38281 61.8008 4.34375C61.7695 4.30469 61.7305 4.27344 61.6836 4.25C61.6367 4.22656 61.5898 4.21094 61.543 4.20312C61.4961 4.1875 61.457 4.17969 61.4258 4.17969C61.2695 4.17969 61.0938 4.21875 60.8984 4.29688C60.7109 4.36719 60.5273 4.40234 60.3477 4.40234C60.2461 4.40234 60.1641 4.38672 60.1016 4.35547C60.1094 4.25391 60.1445 4.17969 60.207 4.13281C60.2695 4.07812 60.3398 4.03516 60.418 4.00391C60.4961 3.97266 60.5781 3.94922 60.6641 3.93359C60.75 3.91016 60.8242 3.875 60.8867 3.82812C60.9258 3.80469 60.9492 3.77734 60.957 3.74609C60.9648 3.70703 61 3.67969 61.0625 3.66406C61.1953 3.61719 61.3359 3.60156 61.4844 3.61719C61.6406 3.63281 61.793 3.61719 61.9414 3.57031C62.043 3.53906 62.1289 3.48438 62.1992 3.40625C62.2695 3.32812 62.3594 3.26562 62.4688 3.21875C62.5391 3.1875 62.6133 3.16797 62.6914 3.16016C62.7695 3.14453 62.8438 3.12891 62.9141 3.11328C62.9922 3.09766 63.0586 3.07422 63.1133 3.04297C63.1758 3.00391 63.2227 2.94531 63.2539 2.86719C63.3477 2.88281 63.4062 2.91406 63.4297 2.96094C63.4609 3.00781 63.4844 3.05859 63.5 3.11328C63.5234 3.16016 63.5508 3.20703 63.582 3.25391C63.6133 3.29297 63.6797 3.3125 63.7812 3.3125C63.8984 3.3125 64.043 3.28125 64.2148 3.21875C64.3867 3.15625 64.5508 3.125 64.707 3.125C64.832 3.125 64.9297 3.15625 65 3.21875ZM77.4805 3.67578C77.4805 3.76953 77.4531 3.83594 77.3984 3.875C77.3438 3.91406 77.2812 3.94531 77.2109 3.96875C77.1406 3.98437 77.0625 3.99609 76.9766 4.00391C76.8984 4.00391 76.832 4.01562 76.7773 4.03906C76.7852 4.03906 76.7344 4.07422 76.625 4.14453C76.5156 4.21484 76.3906 4.26562 76.25 4.29688C76.1953 4.3125 76.1445 4.32031 76.0977 4.32031C76.0586 4.32031 76.0234 4.33203 75.9922 4.35547C75.9609 4.37891 75.9375 4.42188 75.9219 4.48438C75.9062 4.54687 75.8984 4.64844 75.8984 4.78906V4.98828C75.875 5.21484 75.8398 5.46875 75.793 5.75C75.7461 6.02344 75.6992 6.30859 75.6523 6.60547C75.6133 6.90234 75.5742 7.19922 75.5352 7.49609C75.4961 7.78516 75.4727 8.05859 75.4648 8.31641V8.50391C75.4648 8.55859 75.457 8.60547 75.4414 8.64453C75.4336 8.67578 75.4297 8.70312 75.4297 8.72656C75.4297 8.75781 75.4336 8.79297 75.4414 8.83203C75.4492 8.86328 75.457 8.92578 75.4648 9.01953C75.4648 9.05859 75.4492 9.08594 75.418 9.10156C75.3867 9.11719 75.3711 9.14844 75.3711 9.19531C75.3711 9.21875 75.3828 9.24219 75.4062 9.26562C75.4297 9.28125 75.4492 9.28906 75.4648 9.28906C75.4492 9.39844 75.418 9.51562 75.3711 9.64062C75.3242 9.75781 75.293 9.87109 75.2773 9.98047C75.2539 10.1133 75.2422 10.2461 75.2422 10.3789C75.2422 10.5039 75.2266 10.6328 75.1953 10.7656C75.1328 11.0391 75.0586 11.3203 74.9727 11.6094C74.8945 11.8906 74.8242 12.1953 74.7617 12.5234C74.7461 12.5625 74.7109 12.6016 74.6562 12.6406C74.6016 12.6719 74.5742 12.707 74.5742 12.7461C74.5742 12.7617 74.5742 12.7773 74.5742 12.793C74.582 12.8086 74.5859 12.8242 74.5859 12.8398C74.5859 12.8789 74.5781 12.9062 74.5625 12.9219C74.5547 12.9297 74.543 12.9375 74.5273 12.9453C74.5195 12.9531 74.5078 12.9648 74.4922 12.9805C74.4844 12.9883 74.4805 13.0117 74.4805 13.0508C74.4805 13.1133 74.4844 13.1758 74.4922 13.2383C74.5078 13.3008 74.5156 13.3633 74.5156 13.4258C74.5156 13.4883 74.5039 13.5352 74.4805 13.5664C74.457 13.5977 74.4258 13.6289 74.3867 13.6602C74.3555 13.6836 74.3164 13.7148 74.2695 13.7539C74.2305 13.793 74.1914 13.8477 74.1523 13.918C74.1055 13.9961 74.0703 14.0781 74.0469 14.1641C74.0234 14.25 73.9961 14.3125 73.9648 14.3516C73.8867 14.4531 73.7891 14.5312 73.6719 14.5859C73.5547 14.6406 73.4492 14.7109 73.3555 14.7969C73.3008 14.8516 73.2695 14.9141 73.2617 14.9844C73.2539 15.0469 73.2266 15.1016 73.1797 15.1484C73.1328 15.1953 73.0742 15.2266 73.0039 15.2422C72.9414 15.25 72.8867 15.2773 72.8398 15.3242C72.7461 15.4023 72.6602 15.4883 72.582 15.582C72.5039 15.6758 72.4141 15.7656 72.3125 15.8516C72.2734 15.8828 72.2148 15.9102 72.1367 15.9336C72.0586 15.9492 72 15.9766 71.9609 16.0156C71.9219 16.0547 71.8867 16.1094 71.8555 16.1797C71.8242 16.25 71.7891 16.2852 71.75 16.2852C71.7344 16.2852 71.7148 16.2852 71.6914 16.2852C71.668 16.2773 71.6484 16.2734 71.6328 16.2734H71.6094C71.4922 16.4141 71.3203 16.5508 71.0938 16.6836C70.875 16.8164 70.6367 16.9297 70.3789 17.0234C70.1211 17.125 69.8633 17.2031 69.6055 17.2578C69.3555 17.3203 69.1445 17.3516 68.9727 17.3516C68.793 17.3516 68.6641 17.3086 68.5859 17.2227C68.5078 17.1445 68.4375 17.0938 68.375 17.0703C68.2812 17.0312 68.1875 17.0156 68.0938 17.0234C68.0078 17.0391 67.9258 17.0234 67.8477 16.9766C67.8008 16.9531 67.7617 16.9141 67.7305 16.8594C67.6992 16.8047 67.6523 16.7578 67.5898 16.7188C67.4102 16.6094 67.2266 16.4766 67.0391 16.3203C66.8594 16.1562 66.6914 15.9688 66.5352 15.7578C66.4727 15.6719 66.4297 15.5625 66.4062 15.4297C66.3828 15.2891 66.3398 15.1641 66.2773 15.0547C66.2305 14.9766 66.1562 14.9023 66.0547 14.832C65.9531 14.7617 65.8789 14.6641 65.832 14.5391C65.7695 14.3828 65.7227 14.2109 65.6914 14.0234C65.668 13.8359 65.6562 13.6836 65.6562 13.5664C65.6562 13.4805 65.6719 13.3906 65.7031 13.2969C65.7344 13.1953 65.75 13.1094 65.75 13.0391C65.75 12.9453 65.7344 12.8477 65.7031 12.7461C65.6797 12.6367 65.668 12.5312 65.668 12.4297C65.6758 11.9688 65.7188 11.4453 65.7969 10.8594C65.875 10.2656 65.957 9.64062 66.043 8.98438C66.1367 8.32812 66.2227 7.65234 66.3008 6.95703C66.3867 6.26172 66.4375 5.57812 66.4531 4.90625C66.4219 4.875 66.3789 4.85938 66.3242 4.85938C66.2695 4.85938 66.2031 4.875 66.125 4.90625C66.0469 4.9375 65.9648 4.97266 65.8789 5.01172C65.8008 5.05078 65.7188 5.08594 65.6328 5.11719C65.5469 5.14844 65.4688 5.16406 65.3984 5.16406C65.3984 5.11719 65.3633 5.07422 65.293 5.03516C65.2305 4.99609 65.1992 4.94531 65.1992 4.88281C65.1992 4.76562 65.2383 4.67969 65.3164 4.625C65.4023 4.57031 65.5078 4.53125 65.6328 4.50781C65.7578 4.47656 65.8906 4.45703 66.0312 4.44922C66.1797 4.43359 66.3203 4.41016 66.4531 4.37891C66.4844 4.37109 66.5 4.35547 66.5 4.33203C66.5078 4.30859 66.5195 4.29688 66.5352 4.29688C66.6289 4.27344 66.7031 4.26172 66.7578 4.26172C66.8203 4.25391 66.8789 4.24219 66.9336 4.22656C66.9883 4.21094 67.0508 4.18359 67.1211 4.14453C67.1914 4.10547 67.2852 4.03906 67.4023 3.94531C67.4727 3.89062 67.543 3.83203 67.6133 3.76953C67.6836 3.70703 67.7461 3.67578 67.8008 3.67578C67.8789 3.67578 67.9531 3.70703 68.0234 3.76953C68.0938 3.82422 68.1875 3.85156 68.3047 3.85156C68.3672 3.85156 68.4492 3.82422 68.5508 3.76953C68.6602 3.70703 68.7852 3.67578 68.9258 3.67578C68.9883 3.67578 69.0508 3.67969 69.1133 3.6875C69.1758 3.6875 69.2383 3.6875 69.3008 3.6875C69.3555 3.6875 69.3984 3.67969 69.4297 3.66406C69.4609 3.64062 69.4844 3.61719 69.5 3.59375C69.5234 3.57031 69.5469 3.55078 69.5703 3.53516C69.5938 3.51172 69.6328 3.5 69.6875 3.5C69.7422 3.5 69.8047 3.50781 69.875 3.52344C69.9453 3.53906 69.9961 3.5625 70.0273 3.59375C69.9883 3.71875 69.9414 3.8125 69.8867 3.875C69.832 3.9375 69.7656 3.98437 69.6875 4.01562C69.6094 4.04688 69.5195 4.06641 69.418 4.07422C69.3164 4.08203 69.2031 4.09766 69.0781 4.12109C69.0312 4.12891 68.9688 4.14063 68.8906 4.15625C68.8125 4.16406 68.7539 4.17969 68.7148 4.20312C68.6523 4.26562 68.5898 4.38672 68.5273 4.56641C68.4727 4.74609 68.418 4.95703 68.3633 5.19922C68.3164 5.44141 68.2617 5.69922 68.1992 5.97266C68.1445 6.23828 68.0859 6.49609 68.0234 6.74609C68.0156 6.77734 68.0078 6.8125 68 6.85156C68 6.88281 68 6.92188 68 6.96875C68 7.03125 68 7.09766 68 7.16797C68.0078 7.23047 68.0117 7.30469 68.0117 7.39062C68.0117 7.5 68.0078 7.61328 68 7.73047C67.9922 7.83984 67.9688 7.94922 67.9297 8.05859C67.9141 8.15234 67.8906 8.30469 67.8594 8.51562C67.8359 8.72656 67.8047 8.97656 67.7656 9.26562C67.7344 9.54688 67.7031 9.86328 67.6719 10.2148C67.6406 10.5586 67.6133 10.918 67.5898 11.293C67.582 11.3789 67.5625 11.457 67.5312 11.5273C67.5078 11.5977 67.4961 11.6641 67.4961 11.7266C67.4961 11.7578 67.5117 11.7812 67.543 11.7969L67.5898 11.8203C67.5664 12.0625 67.5273 12.2812 67.4727 12.4766C67.4258 12.6641 67.4023 12.8516 67.4023 13.0391C67.4258 13.3672 67.5 13.6758 67.625 13.9648C67.75 14.2539 67.8828 14.5 68.0234 14.7031C68.0469 14.7344 68.0938 14.8008 68.1641 14.9023C68.2344 14.9961 68.3125 15.0938 68.3984 15.1953C68.4844 15.2969 68.5664 15.3906 68.6445 15.4766C68.7305 15.5547 68.7969 15.5938 68.8438 15.5938C68.8594 15.5938 68.8789 15.5938 68.9023 15.5938C68.9258 15.5859 68.9453 15.582 68.9609 15.582H68.9844C69.0625 15.6758 69.1719 15.75 69.3125 15.8047C69.4531 15.8594 69.6055 15.9297 69.7695 16.0156C69.8242 16.0469 69.8711 16.0742 69.9102 16.0977C69.957 16.1211 70 16.1445 70.0391 16.168C70.0859 16.1836 70.1328 16.1992 70.1797 16.2148C70.2344 16.2227 70.3008 16.2266 70.3789 16.2266C70.5508 16.2266 70.6836 16.2148 70.7773 16.1914C70.8789 16.1602 70.9688 16.1211 71.0469 16.0742C71.125 16.0195 71.2031 15.9609 71.2812 15.8984C71.3672 15.8281 71.4766 15.75 71.6094 15.6641C71.6797 15.6172 71.7656 15.5547 71.8672 15.4766C71.9766 15.3906 72.0859 15.3008 72.1953 15.207C72.3125 15.1055 72.418 15.0039 72.5117 14.9023C72.6133 14.8008 72.6914 14.707 72.7461 14.6211C72.7773 14.582 72.8047 14.5078 72.8281 14.3984C72.8516 14.2812 72.8828 14.1797 72.9219 14.0938C72.9688 14.0078 73.0078 13.9375 73.0391 13.8828C73.0703 13.8203 73.0977 13.7578 73.1211 13.6953C73.1523 13.6328 73.1797 13.5586 73.2031 13.4727C73.2266 13.3867 73.25 13.2734 73.2734 13.1328C73.2969 13.0312 73.3164 12.9141 73.332 12.7812C73.3555 12.6406 73.3789 12.5 73.4023 12.3594C73.4258 12.2188 73.4531 12.0859 73.4844 11.9609C73.5234 11.8281 73.5703 11.7148 73.625 11.6211C73.625 11.5508 73.6094 11.5078 73.5781 11.4922C73.5547 11.4688 73.543 11.418 73.543 11.3398C73.543 11.2617 73.5508 11.1445 73.5664 10.9883C73.582 10.8242 73.6016 10.6953 73.625 10.6016C73.6484 10.5234 73.6719 10.4609 73.6953 10.4141C73.7266 10.3594 73.7578 10.3086 73.7891 10.2617C73.8203 10.2148 73.8438 10.1641 73.8594 10.1094C73.8828 10.0469 73.8945 9.96094 73.8945 9.85156C73.8945 9.74219 73.8867 9.66406 73.8711 9.61719C73.8633 9.5625 73.8516 9.52734 73.8359 9.51172C73.8281 9.48828 73.8203 9.46875 73.8125 9.45312C73.8047 9.4375 73.8008 9.41016 73.8008 9.37109C73.8633 9.11328 73.9375 8.82031 74.0234 8.49219C74.1172 8.16406 74.1875 7.81641 74.2344 7.44922V7.36719C74.2344 7.30469 74.2305 7.23438 74.2227 7.15625C74.2227 7.07031 74.2227 6.98438 74.2227 6.89844C74.2227 6.78906 74.2305 6.67578 74.2461 6.55859C74.2695 6.43359 74.293 6.3125 74.3164 6.19531C74.3398 6.07812 74.3594 5.96875 74.375 5.86719C74.3984 5.75781 74.4102 5.66406 74.4102 5.58594C74.4102 5.5 74.3945 5.42188 74.3633 5.35156C74.3398 5.28125 74.3281 5.21094 74.3281 5.14062C74.3281 5.03125 74.3438 4.95703 74.375 4.91797C74.4141 4.87109 74.4336 4.82812 74.4336 4.78906C74.4336 4.75 74.4141 4.72266 74.375 4.70703C74.3438 4.69141 74.3086 4.68359 74.2695 4.68359C74.1836 4.68359 74.0742 4.71094 73.9414 4.76562C73.8164 4.82031 73.6875 4.84766 73.5547 4.84766C73.4844 4.84766 73.418 4.83594 73.3555 4.8125C73.293 4.78125 73.2344 4.72656 73.1797 4.64844C73.2109 4.53906 73.3008 4.44922 73.4492 4.37891C73.5977 4.30859 73.7617 4.25 73.9414 4.20312C74.1289 4.14844 74.3086 4.10547 74.4805 4.07422C74.6602 4.03516 74.7852 3.99219 74.8555 3.94531C74.8945 3.91406 74.9141 3.87109 74.9141 3.81641C74.9219 3.75391 74.9805 3.72266 75.0898 3.72266C75.168 3.72266 75.25 3.74609 75.3359 3.79297C75.4297 3.83203 75.543 3.85156 75.6758 3.85156C75.8633 3.85156 76.0508 3.82031 76.2383 3.75781C76.4336 3.6875 76.6406 3.63281 76.8594 3.59375C76.8828 3.59375 76.918 3.57813 76.9648 3.54688C77.0117 3.51562 77.0859 3.5 77.1875 3.5C77.25 3.5 77.3125 3.51172 77.375 3.53516C77.4375 3.55859 77.4727 3.60547 77.4805 3.67578ZM92.9375 16.4141C93.0078 16.5078 93.043 16.5781 93.043 16.625C93.043 16.6953 93 16.7422 92.9141 16.7656C92.8281 16.7812 92.7188 16.793 92.5859 16.8008C92.4531 16.8008 92.3086 16.8008 92.1523 16.8008C91.9961 16.8008 91.8477 16.8164 91.707 16.8477C91.5273 16.8867 91.3672 16.9375 91.2266 17C91.0859 17.0625 90.9531 17.125 90.8281 17.1875C90.7031 17.2578 90.5859 17.3164 90.4766 17.3633C90.3672 17.4102 90.2617 17.4336 90.1602 17.4336C90.0664 17.4336 89.9766 17.4102 89.8906 17.3633C89.8047 17.3164 89.7227 17.293 89.6445 17.293C89.5273 17.293 89.4023 17.3047 89.2695 17.3281C89.1445 17.3516 89.0234 17.3789 88.9062 17.4102C88.7969 17.4414 88.6953 17.4688 88.6016 17.4922C88.5078 17.5234 88.4375 17.543 88.3906 17.5508C88.2812 17.5508 88.1914 17.5273 88.1211 17.4805C88.0586 17.4336 88.0273 17.3672 88.0273 17.2812C88.0273 17.0938 88.0977 16.9609 88.2383 16.8828C88.3867 16.8047 88.5898 16.7656 88.8477 16.7656C88.8867 16.7656 88.9336 16.7695 88.9883 16.7773C89.043 16.7852 89.0977 16.7891 89.1523 16.7891C89.2852 16.7891 89.3945 16.7266 89.4805 16.6016C89.5664 16.4688 89.6328 16.3008 89.6797 16.0977C89.7344 15.8867 89.7695 15.6484 89.7852 15.3828C89.8086 15.1094 89.8242 14.8359 89.832 14.5625C89.8398 14.2891 89.8438 14.0234 89.8438 13.7656C89.8516 13.5078 89.8594 13.2812 89.8672 13.0859C89.9062 12.375 89.9375 11.6406 89.9609 10.8828C89.9844 10.125 89.9961 9.41406 89.9961 8.75C89.9961 8.19531 89.9844 7.71875 89.9609 7.32031C89.8516 7.35938 89.7539 7.41406 89.668 7.48438C89.582 7.55469 89.5039 7.63281 89.4336 7.71875C89.3633 7.80469 89.2969 7.89844 89.2344 8C89.1797 8.09375 89.1289 8.18359 89.082 8.26953C89.0742 8.27734 89.0703 8.28906 89.0703 8.30469C89.0703 8.32031 89.0703 8.33984 89.0703 8.36328C89.0781 8.38672 89.082 8.40625 89.082 8.42188C89.082 8.42969 89.0664 8.46094 89.0352 8.51562C89.0039 8.57031 88.9648 8.63281 88.918 8.70312C88.8711 8.76562 88.8203 8.83203 88.7656 8.90234C88.7188 8.97266 88.6797 9.02344 88.6484 9.05469C88.5469 9.16406 88.4102 9.35156 88.2383 9.61719C88.0742 9.875 87.8867 10.1836 87.6758 10.543C87.4727 10.9023 87.2578 11.2969 87.0312 11.7266C86.8125 12.1562 86.5938 12.5938 86.375 13.0391C86.1641 13.4844 85.9648 13.9219 85.7773 14.3516C85.5977 14.7812 85.4453 15.1758 85.3203 15.5352C85.2578 15.6992 85.2109 15.8633 85.1797 16.0273C85.1484 16.1914 85.1055 16.3438 85.0508 16.4844C85.0039 16.6172 84.9375 16.7266 84.8516 16.8125C84.7734 16.8906 84.6562 16.9297 84.5 16.9297C84.4375 16.9297 84.3867 16.918 84.3477 16.8945C84.3086 16.8633 84.2812 16.8477 84.2656 16.8477C84.1719 16.8555 84.0898 16.875 84.0195 16.9062C83.957 16.9375 83.8984 16.9531 83.8438 16.9531C83.7734 16.9297 83.7109 16.8984 83.6562 16.8594C83.6094 16.8281 83.5664 16.7891 83.5273 16.7422C83.4961 16.6875 83.4805 16.6289 83.4805 16.5664C83.4805 16.5508 83.4805 16.5352 83.4805 16.5195C83.4883 16.4961 83.4922 16.4766 83.4922 16.4609C83.4922 16.4531 83.4883 16.4453 83.4805 16.4375C83.4805 16.4297 83.4805 16.4219 83.4805 16.4141C83.4023 16.25 83.3242 16.082 83.2461 15.9102C83.1758 15.7305 83.1094 15.5195 83.0469 15.2773V15.1367C83.0469 15.0664 83.0195 14.9492 82.9648 14.7852C82.918 14.6133 82.8281 14.3984 82.6953 14.1406C82.6562 14.0078 82.6328 13.8711 82.625 13.7305C82.6172 13.5898 82.582 13.4648 82.5195 13.3555C82.5039 13.332 82.4844 13.3164 82.4609 13.3086C82.4375 13.3008 82.4258 13.2656 82.4258 13.2031C82.4258 13.1875 82.4258 13.168 82.4258 13.1445C82.4336 13.1211 82.4375 13.1016 82.4375 13.0859C82.4062 12.9688 82.3555 12.8203 82.2852 12.6406C82.2148 12.4531 82.1445 12.2734 82.0742 12.1016C82.0039 11.9219 81.9414 11.7695 81.8867 11.6445C81.8398 11.5195 81.8164 11.4531 81.8164 11.4453C81.8164 11.4062 81.8203 11.3711 81.8281 11.3398C81.8359 11.3008 81.8398 11.2656 81.8398 11.2344C81.8398 11.1875 81.8086 11.1328 81.7461 11.0703C81.6914 11.0078 81.6562 10.9492 81.6406 10.8945C81.5859 10.7617 81.543 10.6172 81.5117 10.4609C81.4883 10.3047 81.4453 10.1328 81.3828 9.94531C81.3594 9.86719 81.3242 9.76953 81.2773 9.65234C81.2383 9.52734 81.1953 9.39453 81.1484 9.25391C81.1016 9.11328 81.0508 8.96484 80.9961 8.80859C80.9492 8.65234 80.9023 8.50391 80.8555 8.36328C80.8398 8.32422 80.8281 8.27344 80.8203 8.21094C80.8125 8.14062 80.7969 8.07422 80.7734 8.01172C80.7656 7.99609 80.7461 7.96484 80.7148 7.91797C80.6836 7.86328 80.6523 7.80859 80.6211 7.75391C80.5898 7.69141 80.5625 7.63672 80.5391 7.58984C80.5156 7.54297 80.5039 7.51172 80.5039 7.49609V7.48438C80.4258 7.5 80.3633 7.59375 80.3164 7.76562C80.2773 7.9375 80.2422 8.13281 80.2109 8.35156C80.1875 8.57031 80.1641 8.78516 80.1406 8.99609C80.125 9.19922 80.1016 9.33984 80.0703 9.41797C80.0312 9.51953 80.0117 9.65234 80.0117 9.81641C80.0195 9.97266 80.0117 10.1562 79.9883 10.3672C79.9727 10.5078 79.9375 10.6367 79.8828 10.7539C79.8281 10.8711 79.8008 10.9961 79.8008 11.1289C79.8008 11.1914 79.8008 11.2539 79.8008 11.3164C79.8086 11.3711 79.8125 11.4297 79.8125 11.4922C79.8125 11.6719 79.7852 11.8438 79.7305 12.0078C79.6836 12.1719 79.6484 12.3867 79.625 12.6523C79.625 12.668 79.625 12.6875 79.625 12.7109C79.6328 12.7344 79.6367 12.7539 79.6367 12.7695C79.6367 12.8086 79.625 12.8438 79.6016 12.875C79.5781 12.8984 79.5586 12.9102 79.543 12.9102C79.5039 13.1523 79.4727 13.3867 79.4492 13.6133C79.4336 13.8398 79.4062 14.0703 79.3672 14.3047C79.3281 14.5 79.2812 14.6914 79.2266 14.8789C79.1797 15.0586 79.1406 15.25 79.1094 15.4531C79.0781 15.6562 79.0586 15.8594 79.0508 16.0625C79.0508 16.2656 79.0391 16.4688 79.0156 16.6719C79.2109 16.6641 79.4102 16.6328 79.6133 16.5781C79.8242 16.5156 80.0273 16.4844 80.2227 16.4844C80.4414 16.4844 80.625 16.5469 80.7734 16.6719C80.75 16.7656 80.7266 16.8359 80.7031 16.8828C80.6797 16.9219 80.6484 16.9531 80.6094 16.9766C80.5703 16.9922 80.5195 17 80.457 17C80.4023 17.0078 80.332 17.0156 80.2461 17.0234C80.1836 17.0312 80.1445 17.0469 80.1289 17.0703C80.1211 17.0938 80.1016 17.1094 80.0703 17.1172C79.9375 17.1484 79.8008 17.168 79.6602 17.1758C79.5273 17.1914 79.3945 17.2031 79.2617 17.2109C79.1289 17.2266 78.9961 17.2461 78.8633 17.2695C78.7383 17.293 78.6172 17.3281 78.5 17.375C78.4531 17.3984 78.3828 17.418 78.2891 17.4336C78.2031 17.4492 78.1055 17.4609 77.9961 17.4688C77.8867 17.4844 77.7734 17.4961 77.6562 17.5039C77.5469 17.5195 77.4492 17.5352 77.3633 17.5508C77.2539 17.5664 77.1172 17.5977 76.9531 17.6445C76.7891 17.6914 76.6367 17.7148 76.4961 17.7148C76.3867 17.7148 76.2969 17.6914 76.2266 17.6445C76.1641 17.5977 76.1328 17.5078 76.1328 17.375C76.1328 17.25 76.1758 17.1641 76.2617 17.1172C76.3477 17.0781 76.4492 17.0508 76.5664 17.0352C76.6914 17.0273 76.8164 17.0195 76.9414 17.0117C77.0742 17.0117 77.1836 16.9844 77.2695 16.9297C77.3633 16.875 77.4414 16.8086 77.5039 16.7305C77.5742 16.6523 77.6289 16.5742 77.668 16.4961C77.707 16.418 77.7383 16.3516 77.7617 16.2969C77.7852 16.2344 77.7969 16.1953 77.7969 16.1797C77.7969 16.1406 77.793 16.1055 77.7852 16.0742C77.7852 16.043 77.7852 16.0078 77.7852 15.9688C77.7852 15.9297 77.7891 15.9023 77.7969 15.8867C77.8828 15.6367 77.9727 15.3984 78.0664 15.1719C78.168 14.9375 78.25 14.6797 78.3125 14.3984C78.3203 14.3906 78.3242 14.375 78.3242 14.3516C78.3242 14.3281 78.3203 14.3047 78.3125 14.2812C78.3125 14.2578 78.3125 14.2383 78.3125 14.2227C78.3359 14.1523 78.3633 14.0664 78.3945 13.9648C78.4336 13.8555 78.4727 13.7422 78.5117 13.625C78.5586 13.5078 78.6016 13.3867 78.6406 13.2617C78.6875 13.1367 78.7266 13.0195 78.7578 12.9102V12.8633C78.7578 12.832 78.7539 12.8047 78.7461 12.7812C78.7461 12.7578 78.7461 12.7344 78.7461 12.7109C78.7461 12.6797 78.7734 12.6328 78.8281 12.5703C78.8828 12.5 78.918 12.4102 78.9336 12.3008C78.9727 12.1133 78.9883 11.9336 78.9805 11.7617C78.9805 11.5898 78.9922 11.4219 79.0156 11.2578C79.0469 11.0547 79.0859 10.8594 79.1328 10.6719C79.1797 10.4844 79.2266 10.3008 79.2734 10.1211C79.3203 9.94141 79.3594 9.76562 79.3906 9.59375C79.4297 9.41406 79.4531 9.23438 79.4609 9.05469C79.4688 8.91406 79.4883 8.76953 79.5195 8.62109C79.5508 8.47266 79.5859 8.32422 79.625 8.17578C79.6719 8.01953 79.7109 7.86328 79.7422 7.70703C79.7812 7.55078 79.8047 7.39062 79.8125 7.22656C79.8203 7.07031 79.8477 6.92188 79.8945 6.78125C79.9414 6.63281 79.9727 6.48828 79.9883 6.34766C80.0117 6.16797 80.0234 5.98047 80.0234 5.78516C80.0312 5.58203 80.0469 5.39062 80.0703 5.21094C80.0859 5.125 80.1172 5.02344 80.1641 4.90625C80.2188 4.78125 80.2461 4.67969 80.2461 4.60156C80.2461 4.57031 80.2266 4.53125 80.1875 4.48438C80.1562 4.4375 80.1406 4.38281 80.1406 4.32031C80.1406 4.30469 80.1719 4.26953 80.2344 4.21484C80.2969 4.15234 80.3789 4.08203 80.4805 4.00391C80.582 3.91797 80.6953 3.82812 80.8203 3.73438C80.9453 3.64062 81.0742 3.55078 81.207 3.46484C81.2148 3.45703 81.2383 3.45312 81.2773 3.45312C81.3242 3.45312 81.375 3.45312 81.4297 3.45312C81.5 3.45312 81.5547 3.45703 81.5938 3.46484C81.6328 3.46484 81.6562 3.48047 81.6641 3.51172C81.6797 3.53516 81.6875 3.57422 81.6875 3.62891C81.6875 3.68359 81.6875 3.75781 81.6875 3.85156C81.6875 3.9375 81.6836 4.02734 81.6758 4.12109C81.6758 4.20703 81.6758 4.29688 81.6758 4.39062C81.6758 4.5 81.6797 4.58984 81.6875 4.66016C81.6953 4.72266 81.7031 4.78516 81.7109 4.84766C81.7266 4.90234 81.7422 4.95703 81.7578 5.01172C81.7812 5.06641 81.8047 5.13281 81.8281 5.21094C81.8516 5.28906 81.8711 5.38281 81.8867 5.49219C81.9023 5.59375 81.9375 5.70312 81.9922 5.82031C82.0078 5.85156 82.0391 5.90234 82.0859 5.97266C82.1328 6.03516 82.1602 6.07422 82.168 6.08984C82.2227 6.26172 82.25 6.4375 82.25 6.61719C82.25 6.78906 82.2812 6.96094 82.3438 7.13281C82.3594 7.16406 82.3906 7.19922 82.4375 7.23828C82.4922 7.27734 82.5195 7.30859 82.5195 7.33203C82.5195 7.34766 82.5156 7.36719 82.5078 7.39062C82.5078 7.41406 82.5078 7.43359 82.5078 7.44922C82.5078 7.47266 82.5117 7.48438 82.5195 7.48438C82.5742 7.53125 82.6211 7.60938 82.6602 7.71875C82.6992 7.82812 82.7344 7.95312 82.7656 8.09375C82.7969 8.22656 82.8242 8.36719 82.8477 8.51562C82.8789 8.65625 82.9141 8.78125 82.9531 8.89062C82.9766 8.96094 83.0039 9.03125 83.0352 9.10156C83.0742 9.16406 83.1094 9.23828 83.1406 9.32422C83.1562 9.38672 83.168 9.46094 83.1758 9.54688C83.1836 9.625 83.1992 9.69531 83.2227 9.75781C83.2773 9.91406 83.3594 10.0977 83.4688 10.3086C83.5859 10.5195 83.6797 10.7461 83.75 10.9883V11.1289C83.75 11.1836 83.7773 11.2656 83.832 11.375C83.8945 11.4766 83.9531 11.5781 84.0078 11.6797C84.0625 11.8438 84.1055 12.0312 84.1367 12.2422C84.168 12.4453 84.2109 12.6406 84.2656 12.8281C84.2812 12.8516 84.3125 12.8828 84.3594 12.9219C84.4141 12.9531 84.4453 12.9766 84.4531 12.9922C84.4609 13.0391 84.4648 13.1016 84.4648 13.1797C84.4727 13.2578 84.4805 13.3359 84.4883 13.4141C84.5039 13.4922 84.5273 13.5586 84.5586 13.6133C84.5977 13.668 84.6562 13.6953 84.7344 13.6953C84.8047 13.6953 84.8789 13.6484 84.957 13.5547C85.043 13.4531 85.125 13.332 85.2031 13.1914C85.2891 13.0508 85.3711 12.9062 85.4492 12.7578C85.5352 12.6094 85.6094 12.4844 85.6719 12.3828C85.6797 12.3672 85.7188 12.3125 85.7891 12.2188C85.8594 12.1172 85.9375 12 86.0234 11.8672C86.0391 11.8281 86.0508 11.7852 86.0586 11.7383C86.0664 11.6836 86.082 11.6367 86.1055 11.5977C86.1211 11.582 86.1484 11.5703 86.1875 11.5625C86.2344 11.5469 86.2656 11.5312 86.2812 11.5156C86.3125 11.4766 86.3242 11.4336 86.3164 11.3867C86.3164 11.332 86.3359 11.2891 86.375 11.2578C86.3906 11.2344 86.418 11.2188 86.457 11.2109C86.5039 11.2031 86.5352 11.1875 86.5508 11.1641C86.582 11.125 86.5938 11.082 86.5859 11.0352C86.5781 10.9805 86.5938 10.9336 86.6328 10.8945C86.6484 10.8789 86.6797 10.8672 86.7266 10.8594C86.7734 10.8438 86.8008 10.8281 86.8086 10.8125C86.8711 10.7031 86.9141 10.5781 86.9375 10.4375C86.9609 10.2891 87.0078 10.1523 87.0781 10.0273C87.0859 10.0117 87.1133 10 87.1602 9.99219C87.207 9.97656 87.2344 9.96094 87.2422 9.94531C87.2812 9.86719 87.3047 9.80859 87.3125 9.76953C87.3203 9.73047 87.3555 9.66797 87.418 9.58203C87.4727 9.50391 87.5352 9.43359 87.6055 9.37109C87.6758 9.30078 87.7305 9.22656 87.7695 9.14844C87.8086 9.09375 87.8242 9.03906 87.8164 8.98438C87.8086 8.92188 87.8242 8.85938 87.8633 8.79688C87.8945 8.73438 87.9492 8.66406 88.0273 8.58594C88.1055 8.5 88.1641 8.39453 88.2031 8.26953C88.2344 8.14453 88.3203 8.00781 88.4609 7.85938C88.6016 7.70312 88.7188 7.55078 88.8125 7.40234C88.9062 7.25391 88.9844 7.12891 89.0469 7.02734C89.1094 6.91797 89.1641 6.82031 89.2109 6.73438C89.2656 6.64844 89.3203 6.5625 89.375 6.47656C89.4375 6.38281 89.5156 6.28125 89.6094 6.17188C89.6562 6.10938 89.7188 6.04297 89.7969 5.97266C89.875 5.89453 89.957 5.78516 90.043 5.64453C90.0586 5.61328 90.0703 5.57031 90.0781 5.51562C90.0859 5.46094 90.1016 5.41797 90.125 5.38672C90.1719 5.33203 90.2344 5.28906 90.3125 5.25781C90.3906 5.22656 90.4492 5.17969 90.4883 5.11719C90.582 4.97656 90.6562 4.82812 90.7109 4.67188C90.7656 4.50781 90.832 4.35937 90.9102 4.22656C90.9883 4.08594 91.0859 3.97266 91.2031 3.88672C91.3203 3.80078 91.4922 3.75781 91.7188 3.75781C91.9062 3.75781 92.0352 3.8125 92.1055 3.92188C92.1758 4.02344 92.2109 4.15234 92.2109 4.30859C92.2109 4.44141 92.1953 4.58594 92.1641 4.74219C92.1328 4.89844 92.0977 5.05469 92.0586 5.21094C92.0195 5.375 91.9883 5.5625 91.9648 5.77344C91.9492 5.98438 91.9336 6.21094 91.918 6.45312C91.9102 6.6875 91.9023 6.92969 91.8945 7.17969C91.8945 7.42969 91.8906 7.67969 91.8828 7.92969C91.8672 8.36719 91.8164 8.80078 91.7305 9.23047C91.6523 9.66016 91.6133 10.0859 91.6133 10.5078C91.6133 10.6094 91.6133 10.7109 91.6133 10.8125C91.6211 10.9141 91.625 11.0156 91.625 11.1172C91.625 11.2734 91.6094 11.4062 91.5781 11.5156C91.5469 11.6172 91.5312 11.7344 91.5312 11.8672C91.5312 11.9766 91.5469 12.0977 91.5781 12.2305C91.6094 12.3633 91.625 12.4766 91.625 12.5703C91.5938 12.6641 91.5625 12.7891 91.5312 12.9453C91.5 13.0938 91.4688 13.2578 91.4375 13.4375C91.4141 13.6172 91.3945 13.8086 91.3789 14.0117C91.3633 14.207 91.3555 14.4023 91.3555 14.5977C91.3555 14.6758 91.3672 14.7656 91.3906 14.8672C91.4219 14.9609 91.4375 15.0391 91.4375 15.1016C91.4375 15.2266 91.4219 15.3477 91.3906 15.4648C91.3594 15.5742 91.3438 15.6836 91.3438 15.793C91.3438 15.8867 91.3594 15.9727 91.3906 16.0508C91.4219 16.1289 91.457 16.1992 91.4961 16.2617C91.543 16.3164 91.5898 16.3594 91.6367 16.3906C91.6836 16.4219 91.7227 16.4375 91.7539 16.4375C91.8242 16.4375 91.9062 16.4297 92 16.4141C92.0938 16.3906 92.1875 16.3672 92.2812 16.3438C92.375 16.3125 92.457 16.2891 92.5273 16.2734C92.5977 16.25 92.6445 16.2383 92.668 16.2383C92.7148 16.2461 92.7617 16.2695 92.8086 16.3086C92.8633 16.3398 92.9062 16.375 92.9375 16.4141ZM65 27.2188V27.2656C65 27.3516 64.9531 27.4141 64.8594 27.4531C64.7656 27.4922 64.6523 27.5234 64.5195 27.5469C64.3867 27.5703 64.25 27.5977 64.1094 27.6289C63.9766 27.6523 63.8672 27.6914 63.7812 27.7461C63.625 27.8477 63.5 27.9961 63.4062 28.1914C63.3203 28.3789 63.2109 28.6094 63.0781 28.8828C63.0469 28.9375 63.0156 29.0078 62.9844 29.0938C62.9609 29.1797 62.9297 29.2539 62.8906 29.3164C62.8672 29.3555 62.8203 29.3867 62.75 29.4102C62.6797 29.4336 62.6406 29.4922 62.6328 29.5859C62.6328 29.6328 62.5977 29.7031 62.5273 29.7969C62.4648 29.8828 62.4141 29.957 62.375 30.0195C62.3047 30.1523 62.2422 30.2891 62.1875 30.4297C62.1406 30.5625 62.0859 30.6875 62.0234 30.8047C61.9844 30.8672 61.9414 30.9258 61.8945 30.9805C61.8477 31.0352 61.8047 31.0938 61.7656 31.1562C61.6562 31.3203 61.5547 31.5 61.4609 31.6953C61.3672 31.8906 61.2656 32.0898 61.1562 32.293C61.1172 32.3398 61.0742 32.3789 61.0273 32.4102C60.9805 32.4336 60.957 32.4648 60.957 32.5039C60.957 32.5273 60.9609 32.5547 60.9688 32.5859C60.9766 32.6172 60.9805 32.6445 60.9805 32.668C60.9805 32.707 60.9648 32.7383 60.9336 32.7617C60.9102 32.7773 60.8828 32.7969 60.8516 32.8203C60.8203 32.8359 60.7891 32.8555 60.7578 32.8789C60.7266 32.9023 60.7109 32.9414 60.7109 32.9961C60.7109 33.0352 60.6875 33.0938 60.6406 33.1719C60.5938 33.25 60.543 33.3281 60.4883 33.4062C60.4336 33.4844 60.3828 33.5547 60.3359 33.6172C60.2891 33.6719 60.2656 33.6992 60.2656 33.6992C60.2656 33.7773 60.2188 33.8555 60.125 33.9336C60.0391 34.0039 59.9375 34.0898 59.8203 34.1914C59.7109 34.2852 59.6055 34.3984 59.5039 34.5312C59.4023 34.6641 59.3398 34.8242 59.3164 35.0117C59.293 35.1133 59.2539 35.2266 59.1992 35.3516C59.1445 35.4766 59.1172 35.6289 59.1172 35.8086C59.1172 35.8867 59.1211 35.9648 59.1289 36.043C59.1367 36.1133 59.1406 36.1914 59.1406 36.2773C59.1406 36.4648 59.1211 36.6641 59.082 36.875C59.0508 37.0781 59.0117 37.2812 58.9648 37.4844C58.918 37.6797 58.875 37.8672 58.8359 38.0469C58.8047 38.2266 58.7891 38.3867 58.7891 38.5273C58.7891 38.582 58.8008 38.6602 58.8242 38.7617C58.8555 38.8555 58.8711 38.9453 58.8711 39.0312C58.8711 39.0469 58.8633 39.0859 58.8477 39.1484C58.8398 39.2031 58.8242 39.2695 58.8008 39.3477C58.7852 39.418 58.7695 39.4961 58.7539 39.582C58.7461 39.6602 58.7422 39.7344 58.7422 39.8047C58.7422 39.9375 58.7812 40.0234 58.8594 40.0625C58.9375 40.0938 59.0234 40.1094 59.1172 40.1094C59.2812 40.1094 59.4688 40.0781 59.6797 40.0156C59.8906 39.9453 60.082 39.9102 60.2539 39.9102C60.3789 39.9102 60.4727 39.9375 60.5352 39.9922C60.4961 40.0625 60.4414 40.1172 60.3711 40.1562C60.3086 40.1953 60.2344 40.2227 60.1484 40.2383C60.0625 40.2539 59.9688 40.2695 59.8672 40.2852C59.7734 40.3008 59.6758 40.3203 59.5742 40.3438C59.4648 40.3672 59.332 40.4023 59.1758 40.4492C59.0195 40.4961 58.8633 40.5508 58.707 40.6133C58.5508 40.668 58.4062 40.7266 58.2734 40.7891C58.1484 40.8438 58.0586 40.8984 58.0039 40.9531C57.9258 41.0312 57.8711 41.0938 57.8398 41.1406C57.8086 41.1953 57.7383 41.2227 57.6289 41.2227C57.5273 41.2227 57.4336 41.1914 57.3477 41.1289C57.2617 41.0742 57.1406 41.0469 56.9844 41.0469C56.9219 41.0469 56.8359 41.0508 56.7266 41.0586C56.6172 41.0664 56.5039 41.0742 56.3867 41.082C56.2695 41.0977 56.1562 41.1172 56.0469 41.1406C55.9453 41.1641 55.8672 41.1875 55.8125 41.2109C55.7578 41.2344 55.6719 41.2617 55.5547 41.293C55.4375 41.3242 55.3164 41.3516 55.1914 41.375C55.0664 41.3984 54.9531 41.418 54.8516 41.4336C54.75 41.4492 54.6875 41.457 54.6641 41.457C54.5938 41.457 54.5273 41.4375 54.4648 41.3984C54.4102 41.3594 54.3828 41.2891 54.3828 41.1875C54.3828 41.1406 54.3945 41.1016 54.418 41.0703C54.4492 41.0469 54.4883 41.0234 54.5352 41C54.582 40.9844 54.6328 40.9688 54.6875 40.9531C54.7422 40.9375 54.7969 40.9102 54.8516 40.8711C54.8672 40.8555 54.8789 40.8242 54.8867 40.7773C54.9023 40.7305 54.918 40.7031 54.9336 40.6953C55.0117 40.6562 55.1016 40.6133 55.2031 40.5664C55.3125 40.5195 55.4336 40.4961 55.5664 40.4961C55.6367 40.4961 55.707 40.5 55.7773 40.5078C55.8477 40.5156 55.918 40.5195 55.9883 40.5195C56.0742 40.5195 56.1836 40.5156 56.3164 40.5078C56.457 40.4922 56.5508 40.4648 56.5977 40.4258C56.6055 40.418 56.6211 40.3672 56.6445 40.2734C56.6758 40.1719 56.7031 40.0586 56.7266 39.9336C56.7578 39.8086 56.7852 39.6875 56.8086 39.5703C56.832 39.4453 56.8477 39.3516 56.8555 39.2891C56.8633 39.2578 56.8672 39.2109 56.8672 39.1484C56.8672 39.0859 56.8633 39.0273 56.8555 38.9727C56.8477 38.9102 56.8438 38.8477 56.8438 38.7852C56.8438 38.6602 56.8828 38.5156 56.9609 38.3516C57.0391 38.1797 57.0938 37.9961 57.125 37.8008C57.1484 37.6367 57.168 37.4531 57.1836 37.25C57.1992 37.0391 57.2109 36.8359 57.2188 36.6406C57.2344 36.4375 57.2461 36.2539 57.2539 36.0898C57.2695 35.918 57.2852 35.7891 57.3008 35.7031C57.293 35.6562 57.2812 35.6211 57.2656 35.5977C57.2578 35.5742 57.2461 35.5586 57.2305 35.5508C57.2148 35.5352 57.1992 35.5234 57.1836 35.5156C57.168 35.5 57.1484 35.4766 57.125 35.4453C57.0625 35.3594 57.0039 35.2539 56.9492 35.1289C56.8945 34.9961 56.8359 34.8672 56.7734 34.7422C56.7344 34.6797 56.6914 34.6133 56.6445 34.543C56.5977 34.4648 56.5547 34.3867 56.5156 34.3086C56.4766 34.2305 56.4453 34.1562 56.4219 34.0859C56.4062 34.0078 56.3867 33.9336 56.3633 33.8633C56.3477 33.7852 56.3242 33.7109 56.293 33.6406C56.2617 33.5703 56.2188 33.5 56.1641 33.4297C56.1328 33.3984 56.0859 33.3711 56.0234 33.3477C55.9609 33.3242 55.9219 33.293 55.9062 33.2539C55.8438 33.1445 55.7969 33.0117 55.7656 32.8555C55.7422 32.6992 55.6992 32.543 55.6367 32.3867C55.6211 32.3633 55.5898 32.332 55.543 32.293C55.5039 32.2539 55.4766 32.2266 55.4609 32.2109C55.4375 32.1641 55.4102 32.1016 55.3789 32.0234C55.3555 31.9375 55.3281 31.8555 55.2969 31.7773C55.2734 31.6992 55.25 31.6289 55.2266 31.5664C55.2109 31.5039 55.2031 31.4727 55.2031 31.4727V31.3672C55.2031 31.3281 55.1523 31.2539 55.0508 31.1445C54.957 31.0273 54.8906 30.8828 54.8516 30.7109C54.8125 30.5547 54.7422 30.3828 54.6406 30.1953C54.5469 30 54.4688 29.7969 54.4062 29.5859C54.3672 29.4609 54.3438 29.3281 54.3359 29.1875C54.3359 29.0469 54.332 28.9766 54.3242 28.9766C54.2539 28.8906 54.1562 28.832 54.0312 28.8008C53.9141 28.7695 53.7852 28.7539 53.6445 28.7539C53.5039 28.7461 53.3633 28.7422 53.2227 28.7422C53.082 28.7422 52.9531 28.7305 52.8359 28.707C52.8828 28.5039 52.9805 28.3789 53.1289 28.332C53.2852 28.2773 53.4531 28.25 53.6328 28.25H53.9375C54.0156 28.25 54.1016 28.2422 54.1953 28.2266C54.2969 28.2109 54.3867 28.1914 54.4648 28.168C54.5508 28.1445 54.6211 28.1172 54.6758 28.0859C54.7305 28.0547 54.7578 28.0195 54.7578 27.9805C54.7578 27.9648 54.7539 27.9453 54.7461 27.9219C54.7461 27.8906 54.7461 27.8672 54.7461 27.8516C54.7461 27.8203 54.7695 27.7891 54.8164 27.7578C54.8711 27.7266 54.9297 27.6992 54.9922 27.6758C55.0547 27.6445 55.1133 27.6211 55.168 27.6055C55.2305 27.582 55.2695 27.5703 55.2852 27.5703H55.3555C55.4023 27.5703 55.4375 27.582 55.4609 27.6055C55.4844 27.6211 55.5039 27.6406 55.5195 27.6641C55.5352 27.6797 55.5508 27.6992 55.5664 27.7227C55.582 27.7383 55.6094 27.7461 55.6484 27.7461C55.6641 27.7461 55.6836 27.7461 55.707 27.7461C55.7305 27.7383 55.7539 27.7344 55.7773 27.7344C55.8008 27.7344 55.8203 27.7461 55.8359 27.7695C55.8516 27.793 55.8711 27.8164 55.8945 27.8398C55.918 27.8633 55.9531 27.8867 56 27.9102C56.0469 27.9336 56.1172 27.9453 56.2109 27.9453C56.3672 27.9453 56.5273 27.9258 56.6914 27.8867C56.8555 27.8477 57.0156 27.8281 57.1719 27.8281C57.3281 27.8281 57.457 27.8594 57.5586 27.9219C57.5117 28.0547 57.4453 28.1406 57.3594 28.1797C57.2734 28.2109 57.1797 28.2266 57.0781 28.2266C57.0312 28.2266 56.9805 28.2266 56.9258 28.2266C56.8789 28.2188 56.832 28.2148 56.7852 28.2148C56.6602 28.2148 56.5547 28.2422 56.4688 28.2969C56.3906 28.3516 56.3516 28.4883 56.3516 28.707C56.3516 29.0273 56.3789 29.2969 56.4336 29.5156C56.4883 29.7344 56.5508 29.9297 56.6211 30.1016C56.6992 30.2734 56.7773 30.4336 56.8555 30.582C56.9336 30.7305 56.9922 30.8945 57.0312 31.0742C57.0547 31.168 57.0938 31.2812 57.1484 31.4141C57.2109 31.5391 57.2773 31.668 57.3477 31.8008C57.418 31.9336 57.4883 32.0664 57.5586 32.1992C57.6289 32.332 57.6875 32.4492 57.7344 32.5508C57.7969 32.6992 57.875 32.8516 57.9688 33.0078C58.0625 33.1562 58.1875 33.3281 58.3438 33.5234C58.3594 33.5391 58.3828 33.582 58.4141 33.6523C58.4531 33.7148 58.4961 33.7812 58.543 33.8516C58.5898 33.9219 58.6406 33.9883 58.6953 34.0508C58.7578 34.1055 58.8164 34.1328 58.8711 34.1328C58.8945 34.1328 58.9297 34.1094 58.9766 34.0625C59.0234 34.0078 59.0742 33.9453 59.1289 33.875C59.1836 33.7969 59.2344 33.7188 59.2812 33.6406C59.3281 33.5625 59.3672 33.4922 59.3984 33.4297C59.4688 33.2891 59.5547 33.1445 59.6562 32.9961C59.7656 32.8477 59.875 32.6992 59.9844 32.5508C60.1016 32.3945 60.2148 32.2383 60.3242 32.082C60.4414 31.918 60.543 31.7578 60.6289 31.6016C60.668 31.5234 60.6914 31.4375 60.6992 31.3438C60.7148 31.2422 60.7461 31.1523 60.793 31.0742C60.8086 31.0352 60.8359 31.0078 60.875 30.9922C60.9141 30.9688 60.9453 30.9375 60.9688 30.8984C61.0156 30.8203 61.0586 30.7148 61.0977 30.582C61.1367 30.4414 61.1836 30.3125 61.2383 30.1953C61.2773 30.1094 61.3281 30.0391 61.3906 29.9844C61.4609 29.9219 61.5 29.8555 61.5078 29.7852C61.5078 29.7617 61.5039 29.7383 61.4961 29.7148C61.4883 29.6836 61.4844 29.6562 61.4844 29.6328C61.4844 29.625 61.4844 29.6172 61.4844 29.6094C61.4922 29.6016 61.4961 29.5938 61.4961 29.5859C61.5039 29.5781 61.5234 29.5273 61.5547 29.4336C61.5938 29.332 61.6328 29.2227 61.6719 29.1055C61.7188 28.9805 61.7578 28.8594 61.7891 28.7422C61.8281 28.625 61.8477 28.5391 61.8477 28.4844C61.8477 28.4297 61.832 28.3828 61.8008 28.3438C61.7695 28.3047 61.7305 28.2734 61.6836 28.25C61.6367 28.2266 61.5898 28.2109 61.543 28.2031C61.4961 28.1875 61.457 28.1797 61.4258 28.1797C61.2695 28.1797 61.0938 28.2188 60.8984 28.2969C60.7109 28.3672 60.5273 28.4023 60.3477 28.4023C60.2461 28.4023 60.1641 28.3867 60.1016 28.3555C60.1094 28.2539 60.1445 28.1797 60.207 28.1328C60.2695 28.0781 60.3398 28.0352 60.418 28.0039C60.4961 27.9727 60.5781 27.9492 60.6641 27.9336C60.75 27.9102 60.8242 27.875 60.8867 27.8281C60.9258 27.8047 60.9492 27.7773 60.957 27.7461C60.9648 27.707 61 27.6797 61.0625 27.6641C61.1953 27.6172 61.3359 27.6016 61.4844 27.6172C61.6406 27.6328 61.793 27.6172 61.9414 27.5703C62.043 27.5391 62.1289 27.4844 62.1992 27.4062C62.2695 27.3281 62.3594 27.2656 62.4688 27.2188C62.5391 27.1875 62.6133 27.168 62.6914 27.1602C62.7695 27.1445 62.8438 27.1289 62.9141 27.1133C62.9922 27.0977 63.0586 27.0742 63.1133 27.043C63.1758 27.0039 63.2227 26.9453 63.2539 26.8672C63.3477 26.8828 63.4062 26.9141 63.4297 26.9609C63.4609 27.0078 63.4844 27.0586 63.5 27.1133C63.5234 27.1602 63.5508 27.207 63.582 27.2539C63.6133 27.293 63.6797 27.3125 63.7812 27.3125C63.8984 27.3125 64.043 27.2812 64.2148 27.2188C64.3867 27.1562 64.5508 27.125 64.707 27.125C64.832 27.125 64.9297 27.1562 65 27.2188ZM73.5898 40.3086C73.6211 40.3711 73.6367 40.4297 73.6367 40.4844C73.6367 40.6016 73.5703 40.6758 73.4375 40.707C73.3047 40.7383 73.1484 40.7578 72.9688 40.7656C72.7891 40.7656 72.6094 40.7656 72.4297 40.7656C72.25 40.7656 72.1094 40.7891 72.0078 40.8359C71.9922 40.8438 71.9492 40.8633 71.8789 40.8945C71.8086 40.9258 71.7305 40.9609 71.6445 41C71.5586 41.0391 71.4805 41.0742 71.4102 41.1055C71.3477 41.1445 71.3164 41.168 71.3164 41.1758H71.293C71.2148 41.1758 71.1133 41.1484 70.9883 41.0938C70.8633 41.0391 70.7227 41.0117 70.5664 41.0117C70.4492 41.0117 70.3086 41.0391 70.1445 41.0938C69.9883 41.1484 69.8242 41.1758 69.6523 41.1758C69.4727 41.1758 69.3203 41.1367 69.1953 41.0586C69.0781 40.9883 69.0195 40.9102 69.0195 40.8242C69.0195 40.6992 69.0898 40.625 69.2305 40.6016C69.3711 40.5781 69.5273 40.5664 69.6992 40.5664H69.8867C69.9883 40.5664 70.0703 40.5703 70.1328 40.5781C70.2031 40.5781 70.2578 40.5625 70.2969 40.5312C70.3359 40.5 70.3633 40.4453 70.3789 40.3672C70.3945 40.2812 70.4023 40.1523 70.4023 39.9805C70.4023 39.8477 70.3984 39.7109 70.3906 39.5703C70.3828 39.4297 70.3711 39.2969 70.3555 39.1719C70.3398 39.0625 70.3086 38.9531 70.2617 38.8438C70.2148 38.7344 70.1836 38.6367 70.168 38.5508C70.1523 38.457 70.1445 38.3438 70.1445 38.2109C70.1445 38.0703 70.1367 37.9375 70.1211 37.8125C70.1055 37.6797 70.0742 37.5703 70.0273 37.4844C69.9805 37.3906 69.9023 37.3438 69.793 37.3438C69.7305 37.3438 69.6523 37.3516 69.5586 37.3672C69.4648 37.3828 69.3516 37.3984 69.2188 37.4141C68.8203 37.4531 68.4219 37.4805 68.0234 37.4961C67.625 37.5117 67.2031 37.5469 66.7578 37.6016C66.3984 37.6484 66.1094 37.6875 65.8906 37.7188C65.6719 37.75 65.4844 37.8203 65.3281 37.9297C65.1719 38.0391 65.0312 38.2148 64.9062 38.457C64.7891 38.6992 64.6523 39.0547 64.4961 39.5234C64.4805 39.5625 64.4375 39.6211 64.3672 39.6992C64.3047 39.7773 64.2734 39.8711 64.2734 39.9805C64.2734 40.0977 64.3203 40.1836 64.4141 40.2383C64.5078 40.293 64.6172 40.3359 64.7422 40.3672C64.875 40.3906 65.0039 40.4141 65.1289 40.4375C65.2617 40.4609 65.3672 40.5039 65.4453 40.5664C65.4453 40.6914 65.3711 40.7891 65.2227 40.8594C65.0742 40.9297 64.8945 40.9844 64.6836 41.0234C64.4805 41.0625 64.2695 41.0898 64.0508 41.1055C63.8398 41.1289 63.6641 41.1523 63.5234 41.1758C63.5 41.1836 63.4258 41.1992 63.3008 41.2227C63.1758 41.2539 63.0273 41.2852 62.8555 41.3164C62.6914 41.3555 62.5156 41.3867 62.3281 41.4102C62.1484 41.4414 61.9844 41.457 61.8359 41.457C61.6953 41.457 61.5859 41.4414 61.5078 41.4102C61.4297 41.3789 61.3906 41.3203 61.3906 41.2344C61.3906 41.0547 61.4453 40.9297 61.5547 40.8594C61.6641 40.7812 61.7891 40.7305 61.9297 40.707C62.0781 40.6836 62.2188 40.6758 62.3516 40.6836C62.4922 40.6836 62.5938 40.6719 62.6562 40.6484C62.6719 40.6406 62.7031 40.625 62.75 40.6016C62.7969 40.5703 62.8438 40.5391 62.8906 40.5078C62.9453 40.4688 62.9922 40.4297 63.0312 40.3906C63.0703 40.3516 63.0898 40.3203 63.0898 40.2969C63.0898 40.2812 63.0859 40.2617 63.0781 40.2383C63.0781 40.2148 63.0781 40.1953 63.0781 40.1797C63.0781 40.1484 63.1055 40.1094 63.1602 40.0625C63.2148 40.0156 63.2773 39.9688 63.3477 39.9219C63.418 39.8672 63.4805 39.8164 63.5352 39.7695C63.5898 39.7227 63.6172 39.6875 63.6172 39.6641C63.6172 39.6484 63.6133 39.6289 63.6055 39.6055C63.5977 39.582 63.5938 39.5625 63.5938 39.5469C63.6016 39.5312 63.6055 39.5234 63.6055 39.5234C63.6367 39.4922 63.6719 39.4414 63.7109 39.3711C63.75 39.293 63.7852 39.207 63.8164 39.1133C63.8555 39.0195 63.8945 38.9258 63.9336 38.832C63.9727 38.7305 64.0117 38.6367 64.0508 38.5508C64.1133 38.4102 64.1875 38.2773 64.2734 38.1523C64.3594 38.0273 64.4336 37.8984 64.4961 37.7656C64.6523 37.4609 64.7969 37.1445 64.9297 36.8164C65.0703 36.4883 65.2422 36.1641 65.4453 35.8438C65.4844 35.7812 65.5156 35.7383 65.5391 35.7148C65.5625 35.6836 65.5898 35.6094 65.6211 35.4922C65.6367 35.4219 65.6836 35.3398 65.7617 35.2461C65.8477 35.1445 65.8906 35.0508 65.8906 34.9648C65.8906 34.9414 65.8867 34.918 65.8789 34.8945C65.8789 34.8711 65.8789 34.8477 65.8789 34.8242C65.8789 34.832 65.9023 34.7812 65.9492 34.6719C66.0039 34.5625 66.0703 34.4258 66.1484 34.2617C66.2344 34.0977 66.3203 33.9219 66.4062 33.7344C66.5 33.5391 66.5898 33.3672 66.6758 33.2188V33.1953C66.6758 33.1797 66.6719 33.1602 66.6641 33.1367C66.6641 33.1055 66.6641 33.082 66.6641 33.0664C66.6641 33.0586 66.668 33.0508 66.6758 33.043C66.7305 33.0039 66.7578 32.9375 66.7578 32.8438C66.7656 32.7422 66.7969 32.6328 66.8516 32.5156C66.8672 32.4766 66.9062 32.4375 66.9688 32.3984C67.0391 32.3516 67.0898 32.3047 67.1211 32.2578C67.1523 32.1875 67.1641 32.125 67.1562 32.0703C67.1562 32.0156 67.1719 31.9609 67.2031 31.9062C67.2266 31.8594 67.2773 31.7656 67.3555 31.625C67.4336 31.4844 67.5195 31.3242 67.6133 31.1445C67.707 30.957 67.7969 30.7617 67.8828 30.5586C67.9688 30.3555 68.0312 30.1641 68.0703 29.9844C68.0156 29.9453 67.9727 29.9258 67.9414 29.9258C67.8945 29.9258 67.8477 29.9414 67.8008 29.9727C67.7539 30.0039 67.7031 30.043 67.6484 30.0898C67.5938 30.1289 67.5391 30.1641 67.4844 30.1953C67.4297 30.2266 67.375 30.2422 67.3203 30.2422C67.2812 30.2422 67.2305 30.2266 67.168 30.1953C67.1133 30.1641 67.0859 30.1094 67.0859 30.0312C67.0859 29.9844 67.1016 29.9414 67.1328 29.9023C67.1719 29.8633 67.2148 29.8281 67.2617 29.7969C67.3086 29.7578 67.3516 29.7188 67.3906 29.6797C67.4297 29.6406 67.4531 29.5938 67.4609 29.5391C67.4688 29.4609 67.5195 29.3867 67.6133 29.3164C67.707 29.2461 67.8086 29.1836 67.918 29.1289C68.0273 29.0742 68.125 29.0273 68.2109 28.9883C68.2969 28.9492 68.3398 28.9219 68.3398 28.9062C68.3398 28.8906 68.3359 28.875 68.3281 28.8594C68.3281 28.8359 68.3281 28.8125 68.3281 28.7891C68.3281 28.75 68.3672 28.7227 68.4453 28.707C68.5312 28.6836 68.6133 28.6406 68.6914 28.5781C68.7617 28.5156 68.8281 28.4492 68.8906 28.3789C68.9531 28.3008 69.0039 28.25 69.043 28.2266C69.1289 28.1875 69.2148 28.1758 69.3008 28.1914C69.3945 28.1992 69.4805 28.1836 69.5586 28.1445C69.6055 28.1211 69.6445 28.0703 69.6758 27.9922C69.7148 27.9141 69.7891 27.875 69.8984 27.875C70.0078 27.875 70.082 27.8828 70.1211 27.8984C70.168 27.9141 70.1953 27.9414 70.2031 27.9805C70.2188 28.0117 70.2266 28.0586 70.2266 28.1211C70.2266 28.1758 70.2383 28.2422 70.2617 28.3203C70.2695 28.3438 70.2891 28.3828 70.3203 28.4375C70.3594 28.4844 70.3984 28.5352 70.4375 28.5898C70.4766 28.6445 70.5117 28.7031 70.543 28.7656C70.582 28.8281 70.6055 28.8828 70.6133 28.9297C70.6289 29.0234 70.6367 29.1484 70.6367 29.3047C70.6445 29.4531 70.6484 29.6133 70.6484 29.7852C70.6484 29.9492 70.6484 30.1133 70.6484 30.2773C70.6562 30.4336 70.6719 30.5664 70.6953 30.6758C70.7188 30.8086 70.7422 30.9258 70.7656 31.0273C70.7891 31.1211 70.8008 31.2305 70.8008 31.3555C70.8008 31.4492 70.7891 31.5156 70.7656 31.5547C70.7422 31.5859 70.7305 31.6172 70.7305 31.6484C70.7305 31.6641 70.7422 31.7305 70.7656 31.8477C70.7891 31.9648 70.8242 32.1016 70.8711 32.2578C70.957 32.4375 71.0234 32.6406 71.0703 32.8672C71.1172 33.0859 71.1523 33.3125 71.1758 33.5469C71.207 33.7812 71.2305 34.0156 71.2461 34.25C71.2695 34.4766 71.293 34.6875 71.3164 34.8828C71.332 35.0156 71.3633 35.1445 71.4102 35.2695C71.457 35.3867 71.4844 35.5078 71.4922 35.6328C71.4922 35.6875 71.4883 35.7422 71.4805 35.7969C71.4727 35.8438 71.4688 35.8906 71.4688 35.9375C71.4688 36.0391 71.4961 36.1445 71.5508 36.2539C71.6133 36.3555 71.6523 36.4531 71.668 36.5469C71.6914 36.7734 71.6992 37.0195 71.6914 37.2852C71.6836 37.543 71.7031 37.7891 71.75 38.0234C71.7734 38.1406 71.8086 38.2539 71.8555 38.3633C71.9102 38.4648 71.9375 38.5859 71.9375 38.7266C71.9375 38.8047 71.9336 38.8828 71.9258 38.9609C71.918 39.0391 71.9141 39.1133 71.9141 39.1836C71.9141 39.2539 71.918 39.3047 71.9258 39.3359C71.9258 39.3594 71.9414 39.418 71.9727 39.5117C72.0039 39.5977 72.0391 39.6953 72.0781 39.8047C72.125 39.9062 72.1641 40 72.1953 40.0859C72.2344 40.1719 72.2617 40.2188 72.2773 40.2266C72.332 40.2656 72.4219 40.2852 72.5469 40.2852C72.6719 40.2852 72.8047 40.2695 72.9453 40.2383C73.0938 40.207 73.2227 40.1914 73.332 40.1914C73.4648 40.1914 73.5508 40.2305 73.5898 40.3086ZM69.8281 36.3711C69.8516 36.3398 69.8633 36.3008 69.8633 36.2539C69.8633 36.1758 69.8438 36.1016 69.8047 36.0312C69.7656 35.9531 69.7461 35.918 69.7461 35.9258C69.7461 35.9102 69.7578 35.8945 69.7812 35.8789C69.8125 35.8633 69.8281 35.8242 69.8281 35.7617C69.8125 35.6445 69.7812 35.5273 69.7344 35.4102C69.6953 35.2852 69.668 35.168 69.6523 35.0586C69.5977 34.7383 69.5508 34.4258 69.5117 34.1211C69.4805 33.8164 69.4375 33.5742 69.3828 33.3945V33.1367C69.3672 33.0039 69.3516 32.8398 69.3359 32.6445C69.3203 32.4492 69.3008 32.2461 69.2773 32.0352C69.2539 31.8164 69.2266 31.6016 69.1953 31.3906C69.1719 31.1719 69.1406 30.9805 69.1016 30.8164C69.0703 30.6445 69.0352 30.5078 68.9961 30.4062C68.957 30.2969 68.918 30.2422 68.8789 30.2422H68.8555C68.7539 30.375 68.668 30.5195 68.5977 30.6758C68.5273 30.8242 68.457 30.9805 68.3867 31.1445C68.3242 31.3008 68.2617 31.4609 68.1992 31.625C68.1367 31.7812 68.0664 31.9336 67.9883 32.082C67.8555 32.332 67.707 32.5781 67.543 32.8203C67.3867 33.0625 67.2461 33.3125 67.1211 33.5703C66.9883 33.8359 66.8672 34.1133 66.7578 34.4023C66.6562 34.6836 66.543 34.9609 66.418 35.2344C66.2852 35.5078 66.1445 35.7773 65.9961 36.043C65.8477 36.3086 65.7539 36.5938 65.7148 36.8984C66.2305 36.8984 66.75 36.8555 67.2734 36.7695C67.8047 36.6836 68.3047 36.6094 68.7734 36.5469C68.875 36.5312 68.9805 36.5234 69.0898 36.5234C69.1992 36.5234 69.3008 36.5234 69.3945 36.5234C69.4883 36.5156 69.5703 36.5039 69.6406 36.4883C69.7188 36.4648 69.7812 36.4258 69.8281 36.3711ZM87.3125 38.4922C87.3125 38.5625 87.2812 38.6367 87.2188 38.7148C87.1641 38.7852 87.0977 38.8594 87.0195 38.9375C86.9492 39.0078 86.875 39.082 86.7969 39.1602C86.7188 39.2305 86.6562 39.2969 86.6094 39.3594C86.5703 39.4141 86.5391 39.4844 86.5156 39.5703C86.5 39.6562 86.4727 39.7344 86.4336 39.8047C86.3398 39.9844 86.2148 40.1406 86.0586 40.2734C85.9023 40.4062 85.7344 40.5703 85.5547 40.7656C85.4844 40.8438 85.418 40.9219 85.3555 41C85.3008 41.0781 85.2422 41.1484 85.1797 41.2109C85.125 41.2812 85.0586 41.3359 84.9805 41.375C84.9102 41.4141 84.8242 41.4336 84.7227 41.4336C84.6133 41.4336 84.5273 41.418 84.4648 41.3867C84.4102 41.3555 84.3555 41.3164 84.3008 41.2695C84.2539 41.2305 84.1992 41.1875 84.1367 41.1406C84.082 41.0938 84.0039 41.0547 83.9023 41.0234C83.7852 40.9922 83.6289 40.875 83.4336 40.6719C83.2461 40.4688 83.0508 40.207 82.8477 39.8867C82.832 39.8633 82.8125 39.8555 82.7891 39.8633C82.7734 39.8711 82.7656 39.8516 82.7656 39.8047C82.7656 39.7578 82.7305 39.707 82.6602 39.6523C82.5977 39.5898 82.5273 39.5312 82.4492 39.4766C82.3789 39.4141 82.3086 39.3594 82.2383 39.3125C82.1758 39.2656 82.1445 39.2266 82.1445 39.1953C82.1445 39.1484 82.1211 39.1055 82.0742 39.0664C82.0352 39.0195 81.9844 38.9766 81.9219 38.9375C81.8672 38.8906 81.8086 38.8477 81.7461 38.8086C81.6914 38.7617 81.6484 38.7148 81.6172 38.668C81.5625 38.5586 81.4961 38.457 81.418 38.3633C81.3398 38.2695 81.2578 38.1797 81.1719 38.0938C81.0859 38 81 37.9102 80.9141 37.8242C80.8281 37.7305 80.7461 37.6289 80.668 37.5195C80.6211 37.457 80.582 37.3906 80.5508 37.3203C80.5195 37.25 80.4961 37.2031 80.4805 37.1797C80.3789 37.0547 80.2422 36.9258 80.0703 36.793C79.8984 36.6523 79.7305 36.5117 79.5664 36.3711C79.4023 36.2227 79.2617 36.0781 79.1445 35.9375C79.0273 35.7891 78.9688 35.6484 78.9688 35.5156C78.9688 35.4766 78.9844 35.4219 79.0156 35.3516C79.0547 35.2812 79.125 35.2461 79.2266 35.2461C79.25 35.2461 79.2734 35.25 79.2969 35.2578C79.3203 35.2578 79.3398 35.2578 79.3555 35.2578C79.3711 35.25 79.4102 35.2305 79.4727 35.1992C79.543 35.1602 79.6133 35.1172 79.6836 35.0703C79.7695 35.0234 79.8633 34.9648 79.9648 34.8945C80.1133 34.8086 80.3086 34.6875 80.5508 34.5312C80.8008 34.3672 81.0586 34.1797 81.3242 33.9688C81.5898 33.7578 81.8438 33.5312 82.0859 33.2891C82.3281 33.0469 82.5234 32.7969 82.6719 32.5391C82.7266 32.4531 82.7773 32.3867 82.8242 32.3398C82.8789 32.293 82.9062 32.207 82.9062 32.082C82.9062 32.0039 82.8789 31.9102 82.8242 31.8008C82.7773 31.6914 82.7109 31.582 82.625 31.4727C82.5469 31.3633 82.457 31.2578 82.3555 31.1562C82.2617 31.0469 82.1641 30.9531 82.0625 30.875C82 30.8203 81.9219 30.7773 81.8281 30.7461C81.7344 30.707 81.6641 30.6641 81.6172 30.6172C81.5469 30.5234 81.5039 30.4141 81.4883 30.2891C81.4805 30.1562 81.4375 30.0625 81.3594 30.0078C81.3125 29.9688 81.2188 29.9531 81.0781 29.9609C80.9375 29.9609 80.8281 29.9453 80.75 29.9141C80.7266 29.8984 80.6992 29.8711 80.668 29.832C80.6445 29.7852 80.6133 29.7539 80.5742 29.7383C80.5273 29.707 80.4805 29.6875 80.4336 29.6797C80.3945 29.6719 80.3516 29.6602 80.3047 29.6445C80.2891 29.6445 80.2656 29.625 80.2344 29.5859C80.2031 29.5469 80.1523 29.5078 80.082 29.4688C80.0117 29.4297 79.9219 29.3945 79.8125 29.3633C79.7031 29.3242 79.5664 29.3047 79.4023 29.3047C79.293 29.3047 79.2031 29.3672 79.1328 29.4922C79.0703 29.6094 79.0195 29.7656 78.9805 29.9609C78.9414 30.1484 78.9141 30.3633 78.8984 30.6055C78.8828 30.8477 78.8711 31.0938 78.8633 31.3438C78.8555 31.5859 78.8516 31.8242 78.8516 32.0586C78.8516 32.2852 78.8438 32.4766 78.8281 32.6328C78.7812 33.2812 78.6992 33.9414 78.582 34.6133C78.4727 35.2773 78.3789 35.9844 78.3008 36.7344V36.7695C78.3008 36.8008 78.3008 36.832 78.3008 36.8633C78.3086 36.8867 78.3125 36.9102 78.3125 36.9336C78.3125 36.957 78.3008 36.9922 78.2773 37.0391C78.2617 37.0781 78.2383 37.0977 78.207 37.0977C78.207 37.1836 78.2109 37.2383 78.2188 37.2617C78.2344 37.2773 78.2422 37.3125 78.2422 37.3672C78.2422 37.3906 78.2383 37.4219 78.2305 37.4609C78.2305 37.5 78.2227 37.5508 78.207 37.6133C78.168 37.7852 78.1367 37.9883 78.1133 38.2227C78.0898 38.4492 78.0664 38.6914 78.043 38.9492C78.0273 39.207 78.0117 39.4688 77.9961 39.7344C77.9883 40 77.9727 40.2578 77.9492 40.5078C77.9648 40.5078 77.9805 40.5117 77.9961 40.5195C78.0117 40.5195 78.0273 40.5195 78.043 40.5195C78.1914 40.5195 78.3359 40.5 78.4766 40.4609C78.625 40.4141 78.7656 40.3906 78.8984 40.3906C79.0391 40.3906 79.1602 40.4297 79.2617 40.5078C79.2383 40.6172 79.1875 40.6953 79.1094 40.7422C79.0312 40.7891 78.9375 40.8242 78.8281 40.8477C78.7188 40.8711 78.6016 40.8867 78.4766 40.8945C78.3516 40.9023 78.2344 40.9141 78.125 40.9297C78.1094 40.9375 78.0859 40.957 78.0547 40.9883C78.0312 41.0117 77.9961 41.0234 77.9492 41.0234C77.832 41.0312 77.7031 41.0586 77.5625 41.1055C77.4297 41.1523 77.293 41.2031 77.1523 41.2578C77.0117 41.3125 76.8711 41.3633 76.7305 41.4102C76.5977 41.457 76.4688 41.4805 76.3438 41.4805C76.2578 41.4805 76.1875 41.4688 76.1328 41.4453C76.0781 41.4297 76.0195 41.4219 75.957 41.4219C75.8711 41.4219 75.8125 41.4414 75.7812 41.4805C75.75 41.5195 75.7148 41.543 75.6758 41.5508C75.5117 41.5898 75.3203 41.6445 75.1016 41.7148C74.8828 41.793 74.6914 41.832 74.5273 41.832C74.4414 41.832 74.3633 41.8164 74.293 41.7852C74.2305 41.7695 74.1797 41.7383 74.1406 41.6914C74.1016 41.6523 74.0898 41.6016 74.1055 41.5391C74.0898 41.4922 74.082 41.457 74.082 41.4336C74.082 41.332 74.125 41.2539 74.2109 41.1992C74.3047 41.1445 74.418 41.1016 74.5508 41.0703C74.6914 41.0391 74.8438 41.0156 75.0078 41C75.1797 40.9766 75.3438 40.9531 75.5 40.9297C75.5156 40.9297 75.5352 40.9336 75.5586 40.9414C75.582 40.9414 75.6133 40.9414 75.6523 40.9414C75.8555 40.9414 75.9922 40.832 76.0625 40.6133C76.1406 40.3945 76.2148 40.0352 76.2852 39.5352C76.2852 39.5273 76.2891 39.5117 76.2969 39.4883C76.3047 39.457 76.332 39.4141 76.3789 39.3594C76.3789 39.2734 76.3633 39.2031 76.332 39.1484C76.3008 39.0859 76.2852 39.0234 76.2852 38.9609C76.2852 38.9375 76.2969 38.9141 76.3203 38.8906C76.3438 38.8594 76.3633 38.8125 76.3789 38.75C76.3945 38.5781 76.418 38.3867 76.4492 38.1758C76.4883 37.957 76.5273 37.7266 76.5664 37.4844C76.6055 37.2422 76.6406 36.9922 76.6719 36.7344C76.7031 36.4688 76.7227 36.207 76.7305 35.9492C76.7305 35.7773 76.7344 35.6172 76.7422 35.4688C76.75 35.3203 76.7734 35.1602 76.8125 34.9883C76.8203 34.957 76.8242 34.9336 76.8242 34.918C76.832 34.8945 76.8359 34.8711 76.8359 34.8477C76.8359 34.8008 76.832 34.7461 76.8242 34.6836C76.8164 34.6211 76.8125 34.5156 76.8125 34.3672C76.8125 34.1328 76.8359 33.8672 76.8828 33.5703C76.9297 33.2734 76.9648 32.9609 76.9883 32.6328C77.0039 32.3984 77.0195 32.1836 77.0352 31.9883C77.0508 31.793 77.0664 31.6016 77.082 31.4141C77.0977 31.2188 77.1172 31.0234 77.1406 30.8281C77.1719 30.625 77.207 30.4062 77.2461 30.1719C77.2617 30.1094 77.2852 30 77.3164 29.8438C77.3477 29.6875 77.3633 29.5547 77.3633 29.4453C77.3633 29.3359 77.3281 29.2695 77.2578 29.2461C77.1953 29.2148 77.1211 29.1992 77.0352 29.1992C76.7305 29.1992 76.4766 29.2617 76.2734 29.3867C76.0703 29.5117 75.8945 29.6484 75.7461 29.7969C75.5977 29.9375 75.4648 30.0703 75.3477 30.1953C75.2305 30.3203 75.1016 30.3828 74.9609 30.3828C74.9219 30.3828 74.8828 30.375 74.8438 30.3594C74.8125 30.3438 74.7969 30.3008 74.7969 30.2305C74.7969 30.0742 74.8438 29.9414 74.9375 29.832C75.0312 29.7148 75.1289 29.5977 75.2305 29.4805C75.2695 29.4414 75.3125 29.4258 75.3594 29.4336C75.4141 29.4336 75.4609 29.418 75.5 29.3867C75.5625 29.3242 75.6211 29.2383 75.6758 29.1289C75.7305 29.0117 75.7891 28.9219 75.8516 28.8594C75.8906 28.8203 75.9336 28.8047 75.9805 28.8125C76.0273 28.8203 76.0742 28.8086 76.1211 28.7773L76.2852 28.5898C76.3242 28.543 76.3594 28.4961 76.3906 28.4492C76.4297 28.4023 76.4531 28.3633 76.4609 28.332C76.4609 28.3242 76.4883 28.2852 76.543 28.2148C76.5977 28.1445 76.6602 28.0703 76.7305 27.9922C76.8008 27.9062 76.8672 27.832 76.9297 27.7695C77 27.6992 77.0469 27.6562 77.0703 27.6406C77.1406 27.6016 77.2227 27.5781 77.3164 27.5703C77.418 27.5547 77.5156 27.5469 77.6094 27.5469C77.7109 27.5391 77.8047 27.5312 77.8906 27.5234C77.9844 27.5156 78.0625 27.4961 78.125 27.4648C78.1875 27.4258 78.2227 27.3867 78.2305 27.3477C78.2461 27.3008 78.2969 27.2227 78.3828 27.1133C78.4219 27.0586 78.4844 27.0117 78.5703 26.9727C78.6562 26.9336 78.7109 26.8945 78.7344 26.8555C78.7344 26.8477 78.7422 26.7891 78.7578 26.6797C78.7734 26.5625 78.8008 26.4375 78.8398 26.3047C78.8867 26.1719 78.9453 26.0508 79.0156 25.9414C79.0938 25.832 79.1953 25.7773 79.3203 25.7773C79.3828 25.7773 79.4336 25.8125 79.4727 25.8828C79.5117 25.9453 79.5586 25.9766 79.6133 25.9766V26.0234C79.6133 26.1094 79.5938 26.2188 79.5547 26.3516C79.5156 26.4766 79.4727 26.6055 79.4258 26.7383C79.3789 26.8633 79.3359 26.9805 79.2969 27.0898C79.2578 27.1914 79.2383 27.2578 79.2383 27.2891C79.2383 27.4062 79.2852 27.5 79.3789 27.5703C79.4727 27.6328 79.5977 27.6914 79.7539 27.7461C79.918 27.8008 80.1055 27.8516 80.3164 27.8984C80.5352 27.9453 80.7656 28.0039 81.0078 28.0742C81.1719 28.1211 81.3086 28.1719 81.418 28.2266C81.5352 28.2812 81.6445 28.3398 81.7461 28.4023C81.8477 28.457 81.9492 28.5156 82.0508 28.5781C82.1523 28.6406 82.2695 28.707 82.4023 28.7773C82.4414 28.793 82.5 28.8047 82.5781 28.8125C82.6641 28.8125 82.7266 28.8281 82.7656 28.8594C82.8516 28.9219 82.9219 29.0039 82.9766 29.1055C83.0391 29.207 83.1133 29.3008 83.1992 29.3867C83.293 29.4805 83.4062 29.5898 83.5391 29.7148C83.6797 29.8398 83.8164 29.9648 83.9492 30.0898C84.082 30.207 84.1953 30.3203 84.2891 30.4297C84.3828 30.5391 84.4297 30.6211 84.4297 30.6758C84.4297 30.707 84.4258 30.7461 84.418 30.793C84.4102 30.832 84.4062 30.8672 84.4062 30.8984C84.4062 30.9375 84.418 30.9688 84.4414 30.9922C84.4648 31.0156 84.4766 31.0469 84.4766 31.0859C84.4766 31.1484 84.4531 31.2188 84.4062 31.2969C84.3672 31.3672 84.3125 31.4609 84.2422 31.5781C84.2109 31.6406 84.1992 31.6992 84.207 31.7539C84.2148 31.8086 84.1992 31.8672 84.1602 31.9297C84.1367 31.9688 84.0977 31.9883 84.043 31.9883C83.9961 31.9805 83.9727 32 83.9727 32.0469C83.9727 32.0625 83.9727 32.082 83.9727 32.1055C83.9805 32.1289 83.9844 32.1484 83.9844 32.1641C83.9844 32.2266 83.9414 32.2891 83.8555 32.3516C83.7695 32.4141 83.668 32.4805 83.5508 32.5508C83.4414 32.6133 83.332 32.6797 83.2227 32.75C83.1211 32.8203 83.0547 32.8945 83.0234 32.9727V32.9844C83.0234 33 83.0234 33.0234 83.0234 33.0547C83.0312 33.0781 83.0352 33.0977 83.0352 33.1133C83.0352 33.1367 83.0195 33.1602 82.9883 33.1836C82.957 33.1992 82.9219 33.2148 82.8828 33.2305C82.8438 33.2461 82.8047 33.2617 82.7656 33.2773C82.7266 33.293 82.6953 33.3086 82.6719 33.3242C82.6328 33.3477 82.5859 33.3945 82.5312 33.4648C82.4844 33.5273 82.4297 33.5977 82.3672 33.6758C82.3125 33.7461 82.2578 33.8164 82.2031 33.8867C82.1484 33.9492 82.1016 33.9961 82.0625 34.0273C82.0156 34.0664 81.9375 34.1094 81.8281 34.1562C81.7188 34.2031 81.6094 34.2539 81.5 34.3086C81.3906 34.3633 81.293 34.4219 81.207 34.4844C81.1289 34.5391 81.0898 34.5938 81.0898 34.6484C81.0898 34.6875 81.125 34.7656 81.1953 34.8828C81.2734 34.9922 81.3555 35.1055 81.4414 35.2227C81.543 35.3633 81.6602 35.5156 81.793 35.6797C81.793 35.7422 81.8594 35.8555 81.9922 36.0195C82.125 36.1836 82.2773 36.3672 82.4492 36.5703C82.6289 36.7656 82.8047 36.9609 82.9766 37.1562C83.1562 37.3438 83.2891 37.4961 83.375 37.6133C83.4141 37.6602 83.457 37.7031 83.5039 37.7422C83.5508 37.7734 83.5938 37.8203 83.6328 37.8828C83.6719 37.9219 83.6875 37.9648 83.6797 38.0117C83.6797 38.0586 83.6914 38.1016 83.7148 38.1406C83.7383 38.1562 83.7695 38.1719 83.8086 38.1875C83.8555 38.1953 83.8867 38.207 83.9023 38.2227C84.1211 38.5273 84.2969 38.7773 84.4297 38.9727C84.5625 39.1602 84.6719 39.3125 84.7578 39.4297C84.8516 39.5391 84.9336 39.6133 85.0039 39.6523C85.082 39.6914 85.1719 39.7109 85.2734 39.7109C85.3984 39.7109 85.5352 39.6719 85.6836 39.5938C85.8398 39.5156 85.9805 39.4258 86.1055 39.3242C86.2383 39.2148 86.3477 39.1094 86.4336 39.0078C86.5273 38.9062 86.5742 38.832 86.5742 38.7852V38.75C86.5742 38.7344 86.5781 38.7109 86.5859 38.6797C86.6016 38.6406 86.6406 38.5781 86.7031 38.4922C86.7578 38.4062 86.8086 38.3242 86.8555 38.2461C86.9102 38.168 86.9805 38.1289 87.0664 38.1289C87.1055 38.1289 87.1562 38.1562 87.2188 38.2109C87.2812 38.2656 87.3125 38.3594 87.3125 38.4922ZM101.34 27.8984C101.277 27.9688 101.215 28.0156 101.152 28.0391C101.09 28.0547 101.027 28.0625 100.965 28.0625C100.926 28.0625 100.891 28.0625 100.859 28.0625C100.828 28.0547 100.793 28.0508 100.754 28.0508C100.684 28.0508 100.633 28.0586 100.602 28.0742C100.578 28.082 100.504 28.1133 100.379 28.168H100.367C100.344 28.168 100.293 28.1719 100.215 28.1797C100.145 28.1875 100.066 28.1992 99.9805 28.2148C99.8867 28.2305 99.7852 28.2422 99.6758 28.25C99.6445 28.2812 99.6133 28.3555 99.582 28.4727C99.5508 28.5898 99.5195 28.7344 99.4883 28.9062C99.4648 29.0703 99.4375 29.2539 99.4062 29.457C99.375 29.6523 99.3477 29.8438 99.3242 30.0312C99.3086 30.2109 99.293 30.3789 99.2773 30.5352C99.2617 30.6836 99.25 30.7969 99.2422 30.875C99.2031 31.2734 99.1758 31.6797 99.1602 32.0938C99.1445 32.5 99.1133 32.9102 99.0664 33.3242C99.0508 33.4805 99.0234 33.6406 98.9844 33.8047C98.9531 33.9688 98.9219 34.1562 98.8906 34.3672C98.875 34.4531 98.8398 34.5469 98.7852 34.6484C98.7383 34.7422 98.7148 34.8438 98.7148 34.9531C98.7148 35.0391 98.7266 35.1484 98.75 35.2812C98.7812 35.4141 98.7969 35.5195 98.7969 35.5977C98.7812 35.6055 98.7617 35.6406 98.7383 35.7031C98.7227 35.7578 98.7148 35.793 98.7148 35.8086C98.7148 35.8398 98.7148 35.8711 98.7148 35.9023C98.7227 35.9258 98.7266 35.9492 98.7266 35.9727C98.7266 36.0117 98.6953 36.0781 98.6328 36.1719C98.5703 36.2578 98.5391 36.3164 98.5391 36.3477C98.5391 36.4023 98.5508 36.4492 98.5742 36.4883C98.6055 36.5273 98.6211 36.582 98.6211 36.6523C98.6211 36.7383 98.6055 36.8047 98.5742 36.8516C98.5508 36.8906 98.5391 36.9531 98.5391 37.0391C98.5391 37.0625 98.5391 37.0898 98.5391 37.1211C98.5469 37.1445 98.5508 37.168 98.5508 37.1914C98.5508 37.2305 98.5234 37.2812 98.4688 37.3438C98.4219 37.4062 98.3867 37.4961 98.3633 37.6133C98.332 37.7695 98.3203 37.9062 98.3281 38.0234C98.3359 38.1406 98.3203 38.2656 98.2812 38.3984C98.25 38.5 98.2188 38.6367 98.1875 38.8086C98.1641 38.9805 98.1328 39.168 98.0938 39.3711C98.0625 39.5742 98.0195 39.7812 97.9648 39.9922C97.918 40.1953 97.8633 40.3828 97.8008 40.5547C97.7383 40.7188 97.668 40.8555 97.5898 40.9648C97.5117 41.0664 97.418 41.1172 97.3086 41.1172C97.2383 41.1172 97.1523 41.0664 97.0508 40.9648C96.957 40.8555 96.8555 40.7266 96.7461 40.5781C96.6445 40.4297 96.543 40.2773 96.4414 40.1211C96.3398 39.957 96.25 39.8203 96.1719 39.7109C95.9375 39.375 95.7266 39.0859 95.5391 38.8438C95.3594 38.5938 95.1875 38.3633 95.0234 38.1523C94.8672 37.9414 94.7109 37.7383 94.5547 37.543C94.4062 37.3477 94.2461 37.1367 94.0742 36.9102L93.5469 36.207C93.4453 36.0898 93.3359 35.9844 93.2188 35.8906C93.1016 35.7891 93.0078 35.6914 92.9375 35.5977C92.8984 35.543 92.8828 35.4844 92.8906 35.4219C92.8984 35.3594 92.8828 35.3047 92.8438 35.2578C92.8125 35.2031 92.7578 35.1328 92.6797 35.0469C92.6094 34.9609 92.5352 34.875 92.457 34.7891C92.3789 34.7031 92.3086 34.6211 92.2461 34.543C92.1836 34.4648 92.1523 34.4062 92.1523 34.3672C92.1211 34.3359 92.1055 34.2969 92.1055 34.25C92.1055 34.1953 92.0898 34.1484 92.0586 34.1094C92.0508 34.0938 92.0234 34.082 91.9766 34.0742C91.9297 34.0586 91.9023 34.043 91.8945 34.0273C91.8477 33.9336 91.7969 33.8398 91.7422 33.7461C91.6875 33.6523 91.6211 33.5391 91.543 33.4062C91.4727 33.2734 91.3789 33.1133 91.2617 32.9258C91.1523 32.7305 91.0117 32.4844 90.8398 32.1875C90.8008 32.1094 90.7656 32.0234 90.7344 31.9297C90.7109 31.8359 90.6523 31.7891 90.5586 31.7891C90.5352 31.7891 90.5 31.8047 90.4531 31.8359C90.4141 31.8594 90.3945 31.9102 90.3945 31.9883C90.3945 32.0039 90.3945 32.0234 90.3945 32.0469C90.4023 32.0703 90.4062 32.0898 90.4062 32.1055C90.3672 32.2383 90.3242 32.4141 90.2773 32.6328C90.2383 32.8438 90.1992 33.0664 90.1602 33.3008C90.1289 33.5273 90.0977 33.7461 90.0664 33.957C90.043 34.168 90.0312 34.3359 90.0312 34.4609V34.6836C90.0312 34.7695 90.0273 34.8594 90.0195 34.9531C90.0117 35.0469 89.9922 35.1484 89.9609 35.2578C89.9531 35.2891 89.9375 35.3164 89.9141 35.3398C89.8906 35.3633 89.8789 35.4062 89.8789 35.4688C89.8789 35.5078 89.8789 35.5547 89.8789 35.6094C89.8867 35.6562 89.8906 35.7031 89.8906 35.75C89.8906 35.7969 89.8633 35.8633 89.8086 35.9492C89.7539 36.0273 89.7188 36.1445 89.7031 36.3008C89.6875 36.4492 89.668 36.6328 89.6445 36.8516C89.6211 37.0625 89.5977 37.2812 89.5742 37.5078C89.5508 37.7266 89.5312 37.9414 89.5156 38.1523C89.5 38.3633 89.4922 38.5391 89.4922 38.6797C89.4922 38.6953 89.4961 38.7227 89.5039 38.7617C89.5195 38.793 89.5273 38.8398 89.5273 38.9023C89.5273 38.9727 89.5195 39.0664 89.5039 39.1836C89.4961 39.3008 89.4805 39.4297 89.457 39.5703C89.4414 39.7031 89.4258 39.8359 89.4102 39.9688C89.4023 40.1016 89.3984 40.2148 89.3984 40.3086C89.3984 40.4492 89.4297 40.5391 89.4922 40.5781C89.5625 40.6094 89.6328 40.625 89.7031 40.625C89.8125 40.625 89.9258 40.6055 90.043 40.5664C90.168 40.5195 90.2852 40.4961 90.3945 40.4961C90.5195 40.4961 90.6094 40.5547 90.6641 40.6719C90.625 40.8438 90.5391 40.957 90.4062 41.0117C90.2812 41.0742 90.1328 41.1133 89.9609 41.1289C89.7969 41.1445 89.6211 41.1484 89.4336 41.1406C89.2461 41.1406 89.0703 41.1602 88.9062 41.1992C88.8438 41.2148 88.8008 41.2461 88.7773 41.293C88.7539 41.3477 88.6758 41.375 88.543 41.375C88.4727 41.375 88.3945 41.3594 88.3086 41.3281C88.2305 41.3047 88.1406 41.293 88.0391 41.293C87.9609 41.293 87.8594 41.2969 87.7344 41.3047C87.6094 41.3125 87.4766 41.3359 87.3359 41.375C87.2969 41.3828 87.2695 41.3984 87.2539 41.4219C87.2383 41.4453 87.2109 41.457 87.1719 41.457C86.9922 41.4414 86.8398 41.4062 86.7148 41.3516C86.5977 41.2969 86.5391 41.2148 86.5391 41.1055C86.5391 41.0195 86.582 40.9648 86.668 40.9414C86.7539 40.9102 86.8594 40.8789 86.9844 40.8477C87.1172 40.8164 87.2383 40.8008 87.3477 40.8008C87.4648 40.8008 87.5703 40.7734 87.6641 40.7188C87.7656 40.6562 87.8594 40.5469 87.9453 40.3906C88.0391 40.2266 88.1289 39.9688 88.2148 39.6172C88.2305 39.5781 88.2461 39.5586 88.2617 39.5586C88.2852 39.5586 88.2969 39.5508 88.2969 39.5352C88.4453 39.043 88.5742 38.5234 88.6836 37.9766C88.8008 37.4297 88.9375 36.8398 89.0938 36.207C89.1562 35.9414 89.2109 35.6484 89.2578 35.3281C89.3125 35 89.3594 34.6641 89.3984 34.3203C89.4375 33.9766 89.4727 33.6289 89.5039 33.2773C89.543 32.9258 89.5781 32.5898 89.6094 32.2695C89.625 32.1367 89.6445 32.0156 89.668 31.9062C89.6914 31.7969 89.7031 31.6875 89.7031 31.5781C89.7031 31.5312 89.7148 31.5078 89.7383 31.5078C89.7695 31.5078 89.7891 31.5 89.7969 31.4844C89.7969 31.4609 89.7812 31.4141 89.75 31.3438C89.7188 31.2734 89.7031 31.1758 89.7031 31.0508C89.7031 30.918 89.7188 30.8125 89.75 30.7344C89.7812 30.6484 89.7969 30.5469 89.7969 30.4297C89.7969 30.2344 89.7852 30.0273 89.7617 29.8086C89.7461 29.5898 89.7383 29.3828 89.7383 29.1875C89.7383 29.0703 89.7422 28.9727 89.75 28.8945C89.7578 28.8086 89.7812 28.7266 89.8203 28.6484C89.8594 28.5703 89.9258 28.4883 90.0195 28.4023C90.1133 28.3086 90.2422 28.1992 90.4062 28.0742C90.4219 28.0586 90.4336 28.0117 90.4414 27.9336C90.4492 27.8477 90.4688 27.8047 90.5 27.8047C90.5156 27.8047 90.5352 27.8086 90.5586 27.8164C90.582 27.8242 90.6016 27.8281 90.6172 27.8281C90.6094 27.8281 90.6562 27.7969 90.7578 27.7344C90.8594 27.6719 90.9648 27.6406 91.0742 27.6406C91.1211 27.6406 91.168 27.7148 91.2148 27.8633C91.2695 28.0117 91.3242 28.1914 91.3789 28.4023C91.4336 28.6055 91.4883 28.8164 91.543 29.0352C91.5977 29.2461 91.6562 29.4219 91.7188 29.5625C91.7188 29.5781 91.7266 29.5859 91.7422 29.5859C91.7656 29.5859 91.7852 29.6055 91.8008 29.6445C91.8242 29.7305 91.8516 29.8047 91.8828 29.8672C91.9219 29.9297 91.9531 30.0039 91.9766 30.0898C91.9922 30.1445 92.0117 30.2031 92.0352 30.2656C92.0664 30.3281 92.0977 30.3867 92.1289 30.4414C92.1602 30.4961 92.1836 30.5469 92.1992 30.5938C92.2227 30.6328 92.2344 30.6562 92.2344 30.6641C92.2344 30.6953 92.2305 30.7266 92.2227 30.7578C92.2227 30.7812 92.2227 30.8047 92.2227 30.8281C92.2227 30.8984 92.2578 30.9688 92.3281 31.0391C92.4062 31.1016 92.4648 31.1641 92.5039 31.2266C92.5898 31.3828 92.6484 31.5352 92.6797 31.6836C92.7188 31.832 92.7734 31.9727 92.8438 32.1055C92.9062 32.1914 92.9609 32.2461 93.0078 32.2695C93.0625 32.293 93.1094 32.3203 93.1484 32.3516C93.1875 32.375 93.2148 32.418 93.2305 32.4805C93.2539 32.543 93.2656 32.6523 93.2656 32.8086C93.2656 32.8867 93.2812 32.9531 93.3125 33.0078C93.3516 33.0625 93.3945 33.1172 93.4414 33.1719C93.4883 33.2266 93.5391 33.2812 93.5938 33.3359C93.6484 33.3828 93.6953 33.4375 93.7344 33.5C93.7969 33.6094 93.8906 33.7344 94.0156 33.875C94.1406 34.0156 94.25 34.1523 94.3438 34.2852C94.3906 34.3477 94.4219 34.4219 94.4375 34.5078C94.4531 34.5938 94.4805 34.668 94.5195 34.7305C94.6055 34.8711 94.7305 35.0117 94.8945 35.1523C95.0586 35.293 95.1953 35.4414 95.3047 35.5977C95.3359 35.6367 95.3477 35.6836 95.3398 35.7383C95.3398 35.7852 95.3555 35.8281 95.3867 35.8672C95.4023 35.8828 95.4297 35.8984 95.4688 35.9141C95.5156 35.9219 95.5469 35.9336 95.5625 35.9492C95.6016 36.0039 95.6289 36.0781 95.6445 36.1719C95.668 36.2578 95.6992 36.3281 95.7383 36.3828C95.8164 36.4766 95.918 36.5898 96.043 36.7227C96.168 36.8555 96.3281 37.0664 96.5234 37.3555C96.5625 37.4102 96.6055 37.4531 96.6523 37.4844C96.707 37.5156 96.75 37.5586 96.7812 37.6133C96.8125 37.6523 96.8281 37.6992 96.8281 37.7539C96.8359 37.8008 96.8516 37.8438 96.875 37.8828C96.8906 37.8984 96.918 37.9297 96.957 37.9766C97.0039 38.0156 97.0508 38.0586 97.0977 38.1055C97.1523 38.1602 97.2148 38.2188 97.2852 38.2812C97.3398 38.2812 97.3789 38.2188 97.4023 38.0938C97.4258 37.9609 97.4531 37.8281 97.4844 37.6953C97.4922 37.6797 97.5078 37.6602 97.5312 37.6367C97.5625 37.6055 97.5781 37.5664 97.5781 37.5195C97.5781 37.4883 97.5742 37.4453 97.5664 37.3906C97.5586 37.3281 97.5547 37.2617 97.5547 37.1914C97.5547 37.1211 97.5625 37.0664 97.5781 37.0273C97.5938 36.9883 97.6094 36.9609 97.625 36.9453C97.6484 36.9219 97.6719 36.9062 97.6953 36.8984C97.7188 36.8828 97.7383 36.8594 97.7539 36.8281L98.0938 35.5977C98.1094 35.5273 98.125 35.4336 98.1406 35.3164C98.1562 35.1914 98.1719 35.0586 98.1875 34.918C98.2031 34.7695 98.2227 34.6172 98.2461 34.4609C98.2773 34.3047 98.3164 34.1602 98.3633 34.0273C98.3633 33.957 98.3477 33.9062 98.3164 33.875C98.293 33.8359 98.2812 33.7852 98.2812 33.7227C98.2812 33.582 98.3047 33.457 98.3516 33.3477C98.4062 33.2305 98.4414 33.1055 98.457 32.9727C98.4961 32.6992 98.5195 32.4219 98.5273 32.1406C98.5352 31.8516 98.5391 31.5508 98.5391 31.2383C98.5391 31.1289 98.5352 31.0195 98.5273 30.9102C98.5273 30.793 98.5273 30.6797 98.5273 30.5703C98.5273 30.2969 98.5391 30.0195 98.5625 29.7383C98.5938 29.4492 98.6094 29.1875 98.6094 28.9531C98.6094 28.7969 98.5781 28.668 98.5156 28.5664C98.4531 28.4648 98.3203 28.4141 98.1172 28.4141C98.0078 28.4141 97.9141 28.4297 97.8359 28.4609C97.7656 28.4922 97.6953 28.5078 97.625 28.5078H97.5781C97.5312 28.5078 97.4766 28.5078 97.4141 28.5078C97.3516 28.5078 97.293 28.4961 97.2383 28.4727C97.1914 28.4492 97.1484 28.4141 97.1094 28.3672C97.0781 28.3125 97.0625 28.2305 97.0625 28.1211C97.0625 27.9961 97.0938 27.9219 97.1562 27.8984C97.2188 27.8672 97.3125 27.8516 97.4375 27.8516C97.5234 27.8516 97.6211 27.8555 97.7305 27.8633C97.8398 27.8633 97.9492 27.8633 98.0586 27.8633C98.168 27.8633 98.2695 27.8516 98.3633 27.8281C98.4648 27.7969 98.582 27.7031 98.7148 27.5469C98.7773 27.4766 98.8359 27.4219 98.8906 27.3828C98.9453 27.3359 99.0039 27.3125 99.0664 27.3125C99.1289 27.3125 99.1875 27.332 99.2422 27.3711C99.2969 27.4023 99.3516 27.4414 99.4062 27.4883C99.4609 27.5273 99.5195 27.5664 99.582 27.6055C99.6445 27.6367 99.7188 27.6523 99.8047 27.6523C99.9609 27.6523 100.129 27.6367 100.309 27.6055C100.488 27.5664 100.656 27.5469 100.812 27.5469C100.945 27.5469 101.055 27.5703 101.141 27.6172C101.234 27.6641 101.301 27.7578 101.34 27.8984Z" fill="#262522"/>
</svg>
