<svg width="38" height="38" viewBox="0 0 38 38" fill="none" xmlns="http://www.w3.org/2000/svg">
<path d="M0.5 16.5C0.5 7.66344 7.66344 0.5 16.5 0.5H21.5C30.3366 0.5 37.5 7.66344 37.5 16.5V21.5C37.5 30.3366 30.3366 37.5 21.5 37.5H16.5C7.66344 37.5 0.5 30.3366 0.5 21.5V16.5Z" fill="#262522" fill-opacity="0.08"/>
<path d="M24.1267 22.5129L27.5 25.8861L26.3861 27L23.0129 23.6267C21.8 24.5971 20.2618 25.1776 18.5888 25.1776C14.6758 25.1776 11.5 22.0018 11.5 18.0888C11.5 14.1758 14.6758 11 18.5888 11C22.5018 11 25.6776 14.1758 25.6776 18.0888C25.6776 19.7618 25.0971 21.3 24.1267 22.5129ZM22.5465 21.9284C23.5096 20.9358 24.1023 19.5819 24.1023 18.0888C24.1023 15.0426 21.635 12.5753 18.5888 12.5753C15.5426 12.5753 13.0753 15.0426 13.0753 18.0888C13.0753 21.135 15.5426 23.6023 18.5888 23.6023C20.0819 23.6023 21.4358 23.0096 22.4284 22.0465L22.5465 21.9284Z" fill="#262522"/>
</svg>
